<svg xmlns="http://www.w3.org/2000/svg" viewBox="0 0 603.13 688.01"><defs><style>.cls-1{fill:#a64c38;}.cls-2{fill:#73403c;}.cls-3,.cls-6{fill:#212026;}.cls-3{stroke:#212026;stroke-width:6px;}.cls-3,.cls-4{stroke-miterlimit:10;}.cls-4,.cls-5{fill:none;}.cls-4{stroke:#f2a25c;stroke-width:16px;}.cls-7{fill:#f2a25c;}</style></defs><g id="Layer_2" data-name="Layer 2"><g id="Layer_3" data-name="Layer 3"><path class="cls-1" d="M117.12,530.49c-.71,2.2-.31,4.16,2.45,6.18s3.25,7,.61,7.69c-4.64,1.27-7.66,4.52-11.89,6.5-1.12.52-2.15,1.5-3.55,0-1-1.09-.51-2.16.14-3,.87-1.17,1.85-2.49-.06-4-3.86-3.09-4.82-8.62-10.27-9.52-1.74-1.92-5.57-3.12-3-5.22,3.16-2.58,5.86-5.66,11.38-5.39,3.69.18,6.9,2.65,10.49,2.4C116.58,525.9,118.11,527.4,117.12,530.49Z"/><path class="cls-2" d="M592.07,282.48a22,22,0,0,0-2.21-3.35c-2.9-3.54-3-8.3-8.27-10.92a4.42,4.42,0,0,1-1.7-5.4,15.22,15.22,0,0,1,4.42-6.24c3.19-2.7,7.49-4.17,12.44-4.81,6.16-.78,7.83-4.95,5.15-10.28-5.25-10.45-12-20.59-13.35-32-.59-5-3.83-10.17-7.58-14.76a5.87,5.87,0,0,0-4.39-2.2,5.83,5.83,0,0,1-5.84-4.06c-1.94-5.32-7.72-6.45-11.85-9-2.08-1.28-3.73-2.28-4.46-4.14-2.65-6.68-5.13-13.39-7.66-20.09-.1-.25,0-.55-.08-.78-1.45-2.74-3.18-5.28-1.69-8.28.91-1.82-1.37-3.66-3.22-5.12-2.73-2.18-5.29-4.46-6.39-7.62-1.52-4.37-5.25-6.62-9.86-7.54-9.23-1.87-15.56-7.17-20.5-14.24-1.38-2-2.83-3.77-5.74-3.66-2.72.1-5-1.6-7.15-2.87-5.56-3.22-8.21-3.49-13.08-.72-3,1.72-11.49.9-13.79-2.09-2.55-3.32-6.49-5.79-8-9.72a17.33,17.33,0,0,0-3.71-5.31c-2.91-3-5.58-6-7.08-9.68a5,5,0,0,0-4.19-3.13c-6.12,0-12-2.75-18-3.64-3.39-.5-6.61.29-9.68.6-6,.59-11.52-.58-17.55-1.83-1.57-.33-3.16-.73-4.75-1.14v0s-26.43-10.08-29.83-9.08-16.07,0-16.07,0h0A297,297,0,0,0,302,56.18l-.18,0-.12,0c-3.46,0-6.91.07-10.37.2h-.06a299.53,299.53,0,0,0-52,6.51h-.11c-1.74.38-3.49.77-5.23,1.18-1.16-4.32-2.49-8.63-3.69-13-11.23-20.67-25-40.35-48.25-46.68-15.3-4.17-33.44-9-48.67,3.88a42.32,42.32,0,0,1-5.87,4.39c-26.22,15.43-35.86,49.19-24.85,74.81,1.61,12.88,7.47,23.23,15.4,31.93a299.22,299.22,0,0,0-99.2,331.58h0l0,.1A301.17,301.17,0,0,0,36.14,492h0q1.13,2.19,2.29,4.36l0,.05,0,0a299.33,299.33,0,0,0,31.24,47.12l5.67,8.54c4.76,10.59,23.87,25.28,37.46,34.76h0q10,8.19,20.93,15.58a1,1,0,0,1,.08.22,7.07,7.07,0,0,0,4.81,4.85A4.06,4.06,0,0,1,141,610c.88,2,2.42,2.7,4.7,2.49,3.09-.28,7.78,3.18,8.29,6,.6,3.32.58,6.58-1,9.35-1.25,2.2-.63,4.39,1.06,6.3C159.26,640,160.06,646.7,163,653a1.78,1.78,0,0,1-.31,1.78c-3.21,3.08-1.81,6.68.15,10.51,1.87,3.64,3.38,7.3,3.64,11.24a8,8,0,0,0,6.67,7.66c1.68.37,2.61,1.49,3.91,2.22,2.42,1.34,4.7,2.15,7.2,1.22,5.93-2.23,12.66-.32,19.09.26,3.46.31,5.94-.06,8.33-2.1a23.9,23.9,0,0,1,13.51-6.11c6.09-.65,12.27-1.93,14.91-7.45.42-.87,1.23-1,2.31-1.12,4.07-.62,8-1.65,12.06-2.28,3.31-.51,4.12-3.28,5.22-5.15,1.85-3.2,5-3.31,8.26-2.8,6,.95,11.37.28,17.05-.55a69.46,69.46,0,0,1,14-.53c5.12.33,9.21-.33,12.95-3.44a15,15,0,0,1,6.19-2.51c1.93-.43,4-.79,5.8-1.29a9.32,9.32,0,0,0,4.41-2.32c1.93-1.87,4.13-3.61,8.23-2.27,2.61.86,5.32.16,6.31-2.36.69-1.78,1.81-2.64,4.33-2.57a12.24,12.24,0,0,0,6.57-1.95c3.05-1.77,7.5-.58,11.21-1.29,4.16-.79,8.54-1,10.33-4.92.62-1.32,2.33-1.23,3.67-1.42,5.9-.85,9.9-3.54,11.71-8.5a59.56,59.56,0,0,0,3.51-12.44c1.05-5.5,5.49-9.55,8.86-14,1.08-1.41,2.11-2.84,3.29-4.16a14.49,14.49,0,0,0,9.56-8.9c3.33-2.05,8.5.8,12.8,1.66,15.49,3.13,30.76,5,44.29-.55a28.58,28.58,0,0,0,8.94-5.55c2.51-2.39,4.36-5.55,7.58-7.45,1.95-1.16,2.6-2.87,1.6-5.32-1.49-3.64-.08-6.17,3.95-7.16,6-1.47,8.75-5.54,10.8-10.26.5-1.18,0-2.29-.54-3.44-1-2.18-2.06-4.34-2.95-6.53-1.32-3.33-2.66-6.66-.28-9.59a3.19,3.19,0,0,0,.52-2.88c-1.69-4.28,1.32-6.77,2.82-9.83.89-1.77,1.75-3.4,1.14-5.76-.55-2.16.76-3.86,3.22-4.47.95-.23,2.57-.29,2.69-.81,1.43-5.95,9.26-6.74,11.66-11.84a3.77,3.77,0,0,1,2.54-2.24,37.13,37.13,0,0,0,13.5-5.68c4.35-2.94,8.32-6.19,12.5-9.27,2.66-2,4-4.9,7.1-6.63a7.74,7.74,0,0,1,6.8-.87c1.41.47,3.13,1,3.78.23,2.32-2.74,7-3.43,7.65-7.63a19.55,19.55,0,0,0-2.9-13.26c-2.27-3.75-4.84-7.2-3-11.23.7-1.46-.7-3.33-1.89-4.85a103.93,103.93,0,0,1-7.14-10.59c-.89-1.51-1-2.55.33-3.36,3.37-2.11,2.24-5.19.27-8-2.74-3.87-1.53-6.61-.2-10,2.37-6.08,8.51-8.46,13.4-12.14s6.36-9.58,8.68-14.86c0-.11,0-.29.07-.37,3.89-4.46,1.88-10.71,3.38-15.9.61-2.13,1.12-4.09,4.34-4.45,3.7-.42,5.51-3,3.43-6.19-3.43-5.19-1.48-11-5.91-16-.44-.52-.2-2,.44-2.86,3.17-4.47,6.28-8.92,6.34-14.86a4.81,4.81,0,0,1,.38-1.72h0a9.73,9.73,0,0,1,1.67-2.65c4.63-5.42,2.29-11.21-2.08-17C595.1,289.87,594,286,592.07,282.48ZM234.66,668.3s0,0-.08-.06c-1.36-.76-2.69-1.81-4.2-2,1.51.21,2.84,1.26,4.2,2C234.61,668.25,234.63,668.28,234.66,668.3Zm-4.31-2.08a3.64,3.64,0,0,0-.74,0A3.64,3.64,0,0,1,230.35,666.22Zm-1.41.08-.14,0h0Zm-51.85-1.24c1.22,1.61-.35,2.88-1,4.17a.87.87,0,0,1-.41.4.85.85,0,0,0,.41-.41c.67-1.28,2.23-2.55,1-4.16-1.87-2.47-1.88-4.19-.08-6.19a2,2,0,0,0,.59-1.29,2,2,0,0,1-.58,1.29C175.22,660.87,175.22,662.59,177.09,665.06Zm-8.54-3.33c0,.06,0,.11,0,.17S168.55,661.79,168.55,661.73Zm.23,1.52a9.31,9.31,0,0,0,2.77,4.4A9.31,9.31,0,0,1,168.78,663.25Zm-.16-.76c0,.17.07.33.11.5C168.69,662.82,168.65,662.66,168.62,662.49Zm.51-3.64,0,0h0Zm.85-2.41a.69.69,0,0,0,0-.13A.69.69,0,0,1,170,656.44Zm.19-2.08h0a8.17,8.17,0,0,0,1.44,1A9.06,9.06,0,0,1,170.17,654.36ZM527.56,156.74a1.07,1.07,0,0,1,0-.18s0,0,0,0a1.48,1.48,0,0,0,0,.22S527.55,156.74,527.56,156.74Zm.06.67s0,.06,0,.09S527.63,157.44,527.62,157.41Zm-5.84-5.09.16-.15-.15.16ZM510.24,136a15.76,15.76,0,0,1,3.31,2.67,15.76,15.76,0,0,0-3.31-2.67,2.53,2.53,0,0,1-1.18-1.13A2.53,2.53,0,0,0,510.24,136Zm-.51-4.11a2,2,0,0,0-.15-2.33A2,2,0,0,1,509.73,131.87Zm22.64,32.57h0Zm3.92-3.47v0Zm0,0a6.77,6.77,0,0,0,.61-2.59A6.55,6.55,0,0,1,536.3,160.94Zm.32-3.38a1,1,0,0,0-.62-.32c-2.7-.47-5.92-4.2-8.32-1v0c2.4-3.18,5.62.55,8.32,1A1,1,0,0,1,536.62,157.56ZM506.3,129.68c.27-.21.55-.43.83-.61C506.85,129.25,506.58,129.47,506.3,129.68Zm-2.08,1.62-.61.52.47-.4Zm-12.41-7.24h0l.14,0ZM149.37,45c21.52-.55,32.09,13.52,40.56,30.39h0c0,.89,0,1.77,0,2.65a300.22,300.22,0,0,0-30.5,14.35C146.63,80.71,139.51,62.41,149.37,45Zm72.47,625.19h0c1.73.24,3.19.34,4.54.51C225,670.53,223.57,670.43,221.84,670.19Zm8.73,1.67a12.43,12.43,0,0,0-3.89-1.12,12.43,12.43,0,0,1,3.89,1.12c1.13.55,1.77-.08,2.41-.83C232.34,671.79,231.7,672.42,230.57,671.86Zm4.15-2.31a1.72,1.72,0,0,0-.49.24,2,2,0,0,1,.49-.24.57.57,0,0,0,.29-.81C235.14,669.08,235.07,669.44,234.72,669.55Z"/><path class="cls-2" d="M364.53,128.86c.84,1,1.18,2.07.27,2.86s-2.06-.18-2.8-.66c-.3-.2-.59-.42-.86-.64l1.61-3.22A9.33,9.33,0,0,1,364.53,128.86Z"/><path class="cls-3" d="M34.91,221c-56,111.42-35.77,241.2,41,330h0a297.3,297.3,0,0,0,36.9,35.84h0q10.05,8.2,20.94,15.59A299.62,299.62,0,0,0,163.24,620c1.5.8,3,1.57,4.55,2.34,6.16,3.09,12.39,6,18.66,8.59q2.48,1,4.93,2,7.19,2.88,14.43,5.34a296.63,296.63,0,0,0,112.3,15.49c1.93-.43,4-.79,5.8-1.29a9.32,9.32,0,0,0,4.41-2.32c1.92-1.87,4.13-3.61,8.23-2.27,2.61.86,5.32.17,6.31-2.36.69-1.78,1.81-2.64,4.33-2.57a12.17,12.17,0,0,0,6.57-2c3.05-1.76,7.5-.57,11.21-1.28,4.16-.79,8.54-1,10.33-4.92.62-1.32,2.33-1.23,3.67-1.42,5.9-.85,9.9-3.54,11.71-8.5a59.56,59.56,0,0,0,3.51-12.44c1.05-5.5,5.49-9.55,8.86-14,2.54-3.33,4.82-6.83,9.32-8.45.37-.14.82-.38.91-.68,2.41-8.09,9.69-3.42,15.42-2.27,15.49,3.13,30.76,5,44.29-.55a28.58,28.58,0,0,0,8.94-5.55c2.51-2.39,4.36-5.55,7.58-7.45,1.95-1.16,2.6-2.87,1.6-5.32-1.49-3.64-.08-6.17,3.95-7.16,6-1.47,8.75-5.54,10.8-10.26.5-1.18,0-2.29-.54-3.44-1-2.18-2.06-4.34-2.95-6.53-1.32-3.33-2.66-6.66-.28-9.59a3.19,3.19,0,0,0,.52-2.88c-1.69-4.28,1.32-6.77,2.83-9.83.88-1.77,1.74-3.4,1.13-5.76-.55-2.16.76-3.86,3.22-4.47.95-.23,2.57-.29,2.69-.81,1.43-5.95,9.26-6.74,11.66-11.84a3.77,3.77,0,0,1,2.54-2.24,37.13,37.13,0,0,0,13.5-5.68c4.35-2.94,8.32-6.19,12.5-9.27,2.66-2,4-4.9,7.1-6.63a7.74,7.74,0,0,1,6.8-.87c1.41.47,3.13,1,3.78.23,2.32-2.74,7-3.43,7.65-7.63a19.55,19.55,0,0,0-2.9-13.26c-2.27-3.75-4.84-7.2-3-11.23.7-1.46-.7-3.33-1.89-4.85a103.93,103.93,0,0,1-7.14-10.59c-.89-1.51-1-2.55.33-3.36,3.37-2.11,2.24-5.19.27-8-2.74-3.87-1.53-6.61-.2-10,2.37-6.08,8.51-8.46,13.4-12.14s6.36-9.58,8.68-14.86c0-.11,0-.29.07-.37,3.89-4.46,1.88-10.71,3.38-15.9.61-2.13,1.12-4.09,4.34-4.45,3.7-.42,5.51-3,3.43-6.19-3.43-5.19-1.48-11-5.91-16-.44-.52-.2-2,.44-2.86,3.17-4.47,6.28-8.92,6.34-14.86a4.81,4.81,0,0,1,.38-1.72h0a299.57,299.57,0,0,0-6-30.48,22,22,0,0,0-2.21-3.35c-2.9-3.54-3-8.3-8.27-10.92a4.42,4.42,0,0,1-1.7-5.4,15.22,15.22,0,0,1,4.42-6.24c-.73-2.08-1.47-4.14-2.24-6.19-.93-2.48-1.88-4.94-2.87-7.38l-.53-1.3q-3.24-7.89-6.91-15.58c-.39-.82-.78-1.64-1.18-2.44q-3.66-7.49-7.72-14.75a297.35,297.35,0,0,0-18.92-29.57q-5.54-7.63-11.57-14.92c-1.34-1.62-2.7-3.24-4.07-4.82-2.12-2.47-4.29-4.89-6.51-7.29h0q-9.25-10-19.52-19.28c-2.59-2.33-5.23-4.63-7.91-6.87-.85-.71-1.69-1.41-2.55-2.11q-6.1-5-12.5-9.7h0l-.69-.51c-1.41-1-2.8-2-4.23-3Q466,104.9,457.05,99.51q-7.95-4.8-16.29-9.17c-1.46-.77-2.94-1.53-4.42-2.27A299.1,299.1,0,0,0,391.73,70a.49.49,0,0,0-.17-.06,296.09,296.09,0,0,0-33-8.36h-.1q-5.91-1.14-11.83-2l-.26,0h0C222,40.81,94.44,102.5,34.91,221Z"/><path class="cls-4" d="M418.25,538.52a375.63,375.63,0,0,1-86.57-31.23,373.19,373.19,0,0,1-43.06-25.6"/><path class="cls-4" d="M182.57,93.06a39.65,39.65,0,0,0-14.22,8.48c-16.75,15.83-15.48,44.86-7.18,64,7.74,17.86,21.8,27.59,29.13,31.86"/><path class="cls-1" d="M290,408.38l0,.07c1.49-11.69-6.19-21.27-7.39-32.41-1.27-11.83,7.82-22.1,19.66-21,15.21,1.4,27.38,7.88,34.68,21.87,2.21,4.22,5,7.61,10,8.27,6.67,14.31,13.46,28.56,20,43,2.9,6.44,7,12.25,14,13,7.25.83,10.48-6.27,13.77-11.32,21.2-32.54,26.17-68.14,19-105.85a59.85,59.85,0,0,1,6.65-3.12C438,315.08,442,317.19,446,335.35c13.57,61.71,2.42,118.28-36.2,168.76-10.28,13.45-7.59,28.53-7.1,43.46.13,4.07,2.25,8.07.76,12.77-5.23-.3-5.84-4.7-7.72-7.63C387,539,374.94,535.21,359.4,539.46c-28.09,7.69-56.59,9.12-85.3,3.17-7.55-1.57-15.16-2.87-22.78-4-3.9-.58-8-1-10.77-3.75-13.12-13.09-29.18-23-40.75-37.74-1.27-1.61-2.66-3.32-1.2-7.93,12.66,10,22.64,22.94,38.39,28.66-2.19-13.64-18.47-22.17-10.45-37.45,20.93,17.12,45.46,18.29,70.61,15.27,19-2.28,24.23-12.45,16.53-30-4.08-9.29-8.3-18.51-12.45-27.76.59-2.26.28-4.16-2.07-5.26l-7.05-15.58A10.42,10.42,0,0,0,290,408.38Zm98.6,92.05c-2.91,12.53-7.45,15.46-20.32,13.23-13.64-2.36-19.91,1.51-21.67,12.8-.9,5.77,1.14,8.73,6.64,6.9,12.59-4.19,24.49-4.73,36.27,2.65,3.59,2.25,5.82-.75,6.34-4.44,2-14.68,5.22-28.79,14.24-41.26,4.11-5.66.75-10-6.36-9.78-4.3.12-7.63,2-10.51,6.05S389.71,495.66,388.6,500.43Z"/><path class="cls-2" d="M413.77,324a59.85,59.85,0,0,1,6.65-3.12C438,315.08,442,317.19,446,335.35c13.57,61.71,2.42,118.28-36.2,168.76-10.28,13.45-7.59,28.53-7.1,43.46.13,4.07,2.25,8.07.76,12.77-5.23-.3-5.84-4.7-7.72-7.63C387,539,374.94,535.21,359.4,539.46c-28.09,7.69-56.59,9.12-85.3,3.17-7.55-1.57-15.16-2.87-22.78-4-3.9-.58-8-1-10.77-3.75-13.12-13.09-29.18-23-40.75-37.74-1.27-1.61-2.66-3.32-1.2-7.93,12.66,10,22.64,22.94,38.39,28.66-2.19-13.64-18.47-22.17-10.45-37.45C216.25,471.76,204,465.62,196,454c-7.79-11.22-8.31-11.51,4-17.92-8-.29-15.94-.61-23.92-.88-5.4-.18-9.61,2.22-11.94,6.93-5.2,10.53-10,21.25-15,31.89,8.62,8.47,14.79,18.84,20.63,29.15,16.83,29.71,43.77,47.83,72,64.47,11.44,6.74,23,13.28,35.81,17.63,19.22,6.52,38.68,6.29,58.28,4.36a141,141,0,0,1,49,3.91c5.06,1.29,10.22,2.75,15.58,1.66,6-5.47,4.19-18.78,17.21-17.3,7.78-21.7,11.82-44.6,22.57-65.38,26.37-51,24.86-105.53,18.29-160.24-1.64-13.69-7.9-26.82-12-40.21-3.54-11.48-3.53-11.48,8.52-11.51-3.06-4.79-7.64-8-12.14-11.21-7.6-5.5-14.31-6.08-20.39,2.56-4.37,6.22-9.54,11.88-14.36,17.78Q411,316.86,413.77,324Z"/><path class="cls-2" d="M290,408.45c1.49-11.69-6.19-21.27-7.39-32.41-1.27-11.83,7.82-22.1,19.66-21,15.21,1.4,27.38,7.88,34.68,21.87,2.21,4.22,5,7.61,10,8.27-15-38.66-32.71-76.07-50.46-113.48-9.63-20.31-18.92-40.77-28.76-61-3.65-7.5-3.05-12.19,5.33-15.59,12.59-5.09,24.08-12.24,38.54-13,13.3-.66,17.52-14.56,11.13-32-11.14-2.85-16.9-13.54-26.7-18.33-4.29,1.85-8.77,3.45-10.46,8.48,11.3-1.12,16,4.31,18.11,15.26s.4,18.39-10.4,22.85c-4.18,1.73-8,4.42-12,6.63-4.94,2.72-9.66,5.32-11.92-3.18-1-3.78-4.1-2.76-6.9-1.49-12.75,5.79-25.58,11.4-38.29,17.29-5.44,2.52-12.9,5.84-13.54,10.85-1.44,11.32-10.05,16-16.48,22.79,9-2.94,12.28,2.62,15.49,9.61,21.54,46.77,41.15,94.44,64.28,140.48C278.75,390.76,283.46,400.15,290,408.45Z"/><path class="cls-1" d="M194.27,231.28c6.43-6.83,15-11.47,16.48-22.79.64-5,8.1-8.33,13.54-10.85,12.71-5.89,25.54-11.5,38.29-17.29,2.8-1.27,5.9-2.29,6.9,1.49,2.26,8.5,7,5.9,11.92,3.18,4-2.21,7.77-4.9,12-6.63,10.8-4.46,12.53-11.88,10.4-22.85s-6.81-16.38-18.11-15.26c-12,5.58-24.08,10.94-35.91,16.81-6.23,3.1-9.72.93-12.66-4.51a91.74,91.74,0,0,0-7.67-12.48c-6.72-8.71-9.18-17,.46-25.33-4.94.58-8.24,4-11.31,7.23-8.28,8.76-18.44,12.12-30.23,12.41-14,.35-25.89-5.27-37.38-12.36-3.29-2-6.09-5.76-12.14-4.11,8.73,11.1,20.15,16.22,31.49,21.43,7.57,3.47,22.4,29.81,21.37,37.91-.44,3.49-2.36,5.74-5.23,7.42-13.84,8.69-29.63,13.16-44.2,20.27-5.67,2.77-11.86-.61-18.6,2.85-10.73,5.48-11.63,12.37-9.32,22,8.53,3.75,17.5,4.32,26.62,3.68,4.53-.32,8.27-1.62,8.72-7.06.24-3-.64-6.92,3.58-7.68,4.49-.81,7.09,2.52,8.92,6,3.07,5.77,4,12.75,9.83,16.93l17.25-8.33c.64-3.24,2.7-2.94,5-2Z"/><path class="cls-1" d="M215.18,69.3c.75,9-1.18,17.55-4.48,25.69-5,12.26-21.94,18.45-34.93,13A80.2,80.2,0,0,1,153,92.88a15.64,15.64,0,0,0-13.42-4.39c-11.93,1.51-12.8,3-7,13.62,1.12,2.06,3.51,4.5.66,6.41-2.46,1.66-4.54-.85-6.25-2.51-7.38-7.15-12.14-17.72-24.36-18.47-11-25.62-1.37-59.38,24.85-74.81a43,43,0,0,0,5.88-4.39C148.6-4.54,166.74.29,182,4.46c23.22,6.33,37,26,48.25,46.68C214.15,53.1,213.84,53.27,215.18,69.3Zm-13.75-7.54c6.3-6.11,5.42-11.2-1.72-15-8.63-4.63-17.43-9.2-26.62-12.46-10.68-3.79-18,2.25-23.72,10.74-13.48,23.8,4.76,49.27,26,57.22,7.24,2.72,12.59.59,14.9-8.1,1.73-6.53-.53-12.5-.35-18.73C193.73,70.82,197.18,65.87,201.43,61.76Z"/><path class="cls-1" d="M149.12,474.05c5-10.64,9.83-21.36,15-31.89,2.33-4.71,6.54-7.11,11.94-6.93,8,.27,15.95.59,23.92.88,3.52-1.8,9.68.77,10.7-4.33.92-4.58-4.32-6.73-7.53-9.32A912.33,912.33,0,0,0,125,365.21c-3.7-2.4-7.48-6.49-12.31-3.49-4.29,2.66-2.5,7.62-2.57,11.69a355.38,355.38,0,0,0,17.07,117c1.29,3.95,1.48,9.24,6.64,9.69,5.38.46,5.86-5.22,7.63-8.71C144.29,485.73,146.59,479.83,149.12,474.05Z"/><path class="cls-2" d="M230.29,51.14c-16.14,2-16.45,2.13-15.11,18.16.75,9-1.18,17.55-4.48,25.69-5,12.26-21.94,18.45-34.93,13A80.2,80.2,0,0,1,153,92.88a15.64,15.64,0,0,0-13.42-4.39c-11.93,1.51-12.8,3-7,13.62,1.12,2.06,3.51,4.5.66,6.41-2.46,1.66-4.54-.85-6.25-2.51-7.38-7.15-12.14-17.72-24.36-18.47,2.5,20,15.23,33.9,30.1,45,10.09,7.55,21.82,14.4,35.69,14,5.51-.17,6.9,4,8.23,8.09,3.3,10,6.51,20,9.76,30.08,2.87-1.68,4.79-3.93,5.23-7.42,1-8.1-13.8-34.44-21.37-37.91C159,134.16,147.53,129,138.8,117.94c6-1.65,8.85,2.09,12.14,4.11,11.49,7.09,23.33,12.71,37.38,12.36,11.79-.29,22-3.65,30.23-12.41,3.07-3.25,6.37-6.65,11.31-7.23l.54-4.48,1.11-5.76C242.24,86.48,235.21,68.83,230.29,51.14Z"/><path class="cls-1" d="M408.17,309.72c4.82-5.9,10-11.56,14.36-17.78,6.08-8.64,12.79-8.06,20.39-2.56,4.5,3.25,9.08,6.42,12.14,11.21,9.23.89,5.14-4.29,3.05-7.49-14.74-22.52-27.71-46.48-50.39-62.69-4.54-3.24-8.31-7.53-12.6-11.15-1.8-1.52-3.84-3.44-6.55-2.27s-2.62,4-2.52,6.38q1.83,46.8,3.81,93.58c.1,2.44.36,5.35,3.09,6.17s4.4-1.43,6.06-3.32C402,316.38,405.11,313.07,408.17,309.72Z"/><path class="cls-2" d="M172,241.61c-5.82-4.18-6.76-11.16-9.83-16.93-1.83-3.43-4.43-6.76-8.92-6-4.22.76-3.34,4.68-3.58,7.68-.45,5.44-4.19,6.74-8.72,7.06-9.12.64-18.09.07-26.62-3.68.41,9.54,4.53,17.35,10.93,24.22,11.45,12.29,20.31,12.32,30.86-.65C160.49,248,167.22,246.22,172,241.61Z"/><path class="cls-1" d="M296.1,131.8c9.8,4.79,15.56,15.48,26.7,18.33-3.38-8.15-7.42-15.52-16.22-19.39C302.44,128.93,299.36,129.1,296.1,131.8Z"/><path class="cls-1" d="M417.71,577.93c-13-1.48-11.18,11.83-17.21,17.3C411.74,594.93,416.56,588.25,417.71,577.93Z"/><path class="cls-2" d="M292.11,417.1a10.42,10.42,0,0,0-2.11-8.72C289,411.69,290,414.54,292.11,417.1Z"/><path class="cls-2" d="M194.25,231.26c-2.32-.92-4.38-1.22-5,2Z"/><path class="cls-2" d="M301.23,437.94c.59-2.26.28-4.16-2.07-5.26Z"/><path class="cls-1" d="M231.51,104.53l-1.11,5.76Z"/><path class="cls-2" d="M393.23,486.58c-3,4.13-3.52,9.08-4.63,13.85-2.91,12.53-7.45,15.46-20.32,13.23-13.64-2.36-19.91,1.51-21.67,12.8-.9,5.77,1.14,8.73,6.64,6.9,12.59-4.19,24.49-4.73,36.27,2.65,3.59,2.25,5.82-.75,6.34-4.44,2-14.68,5.22-28.79,14.24-41.26,4.11-5.66.75-10-6.36-9.78C399.44,480.65,396.11,482.56,393.23,486.58Z"/><path class="cls-2" d="M149.37,45c21.52-.55,32.09,13.52,40.56,30.39,3.8-4.57,7.25-9.52,11.5-13.63,6.3-6.11,5.42-11.2-1.72-15-8.63-4.63-17.43-9.2-26.62-12.46C162.41,30.47,155.07,36.51,149.37,45Z"/><path class="cls-4" d="M177.28,95.52a31.51,31.51,0,0,1,13.62-4c28.22-1.43,54.85,39.58,65.72,68.78,11.68,31.38,3.93,45.83-13.14,179.62-5.54,43.39-8.76,73.5,8.29,103.52,10.82,19,25.84,31.11,36.85,38.3"/><path class="cls-5" d="M431.88,154l-7.91-1.3,7.91,1.3Z"/><path class="cls-5" d="M438.55,473.62h0a8.65,8.65,0,0,0-1.22-.82A8.65,8.65,0,0,1,438.55,473.62Z"/><path class="cls-5" d="M438.79,473.34a.2.2,0,0,1,.17-.07A.2.2,0,0,0,438.79,473.34Z"/><path class="cls-5" d="M347.76,172.79a15.75,15.75,0,0,0,2.87-.64,5.05,5.05,0,0,1,3.88.57c4.21,2.15,7.75,5.32,11.22,8.17,6.06,5,9,5.35,12.41-.32.56-1,.81-2.22,2.74-1,7,4.24,13.44,2,19.89,1.33,2-.23,3.11-.3,4.41,1.5,2.05,2.84,4.7,3.73,8.17,3.14a20.47,20.47,0,0,0,13-7.89c.47-.59.81-1.56,1.85-1,3,1.56,5.14.13,7.59-.25s4.75-1.6,7.05-1.16c3.3.63,1.7,3.88,3.22,5.71.28.34.34.91.66,1.09,2.48,1.33,2.16,3.19,1.69,4.72-1.22,3.93.42,7.52,3.61,10.74a19.94,19.94,0,0,1,4.92,7.48,6.32,6.32,0,0,0,5.28,4.27,20.49,20.49,0,0,1,5.07,2c5.22,4,12.67,6.44,18,11.71,3.26,3.22,6,6.73,9.82,9.67,4.69,3.6,4.22,4.9-1.31,6.38-2.88.77-4.68,3.06-3.47,5,4.21,6.9-1.95,9.76-4.95,12.59-4,3.83-7.47,7.71-9.71,12.6-.61,1.34-.93,2.91-2.48,3.69-4.73,2.39-6.37,6.23-6.38,11.36a40.2,40.2,0,0,1-1,10c-1.64,6-5.76,11.12-6.53,17.65a35.76,35.76,0,0,1-1.35,5.37c-1.26,4.39-1,9.17-2.1,13.46-1.55,6.28-3.92,12.34-4.83,18.83-.81,5.8-.51,11.7,6.54,16.27,1.24.8.71,1.52.64,2.42-.78,10.29-5.29,19.3-9.45,28.11-5.45,11.53-13.09,22-18.62,33.58-1.12,2.36-1.3,5.13-2.82,7.21a43.65,43.65,0,0,0-7.22,14.6c-1.13,4.32-4,7.77-6.82,11-4.37,5-8.88,9.75-7.28,17.36.17.85.38,1.76-.48,2.48-2.91,2.45-5.53,5.18-8.59,7.47-5.28,4-11.39,7.21-15.26,12.4-2,2.72-3.74,5.64-7,7.25a19.37,19.37,0,0,0-5.55,4.53c-2.69,2.89-4.68,6.26-8.38,8.45s-7.49,4.51-9.81,7.7c-4.53,6.23-9,12.56-12.13,19.61-1.38,3.17-1.56,7.09-4.14,9.48-2.29,2.12-3.5,5-3,7.35,1.11,4.71-2.58,6-4.88,8.25-1.13,1.1-2.43,2-3.53,3.25-4.51,5-8.53,10.43-16.33,12.24a3.07,3.07,0,0,0-2.18,4.6c1,2.12-.15,2.36-1.76,2.8a6,6,0,0,1-6.1-1.3c-3-2.59-6.19-3.81-9.83-2.5a9.51,9.51,0,0,1-7.28-.53c-1.88-.83-4.1-.82-6.17-1.18-4.79-.85-9.59-1.81-14.38-2.53-4.28-.65-7.95-3.33-12.79-3.16-5.28.18-11.42-1.34-16.69-3.5-9-3.71-17.34-9.06-26.31-13.06-5.88-2.62-11.43-6-17.58-8.11-2.47-.86-5,0-7.32-1.84-5.94-4.65-11.51-9.41-16-15.34a78,78,0,0,1-5.49-8.69L341.28,169.93C343.22,170.85,345.05,173.14,347.76,172.79Z"/><path class="cls-5" d="M428.2,577.3c.88.83,2.48,1.4,1.55,2.68h0C430.68,578.7,429.08,578.13,428.2,577.3Z"/><path class="cls-5" d="M501.45,222.72a7.14,7.14,0,0,0,.9.54A7.14,7.14,0,0,1,501.45,222.72Z"/><path class="cls-5" d="M498.72,516a2.27,2.27,0,0,0-.56.8A2.27,2.27,0,0,1,498.72,516Z"/><path class="cls-5" d="M437.24,472.74a7,7,0,0,1-.85-.64A7,7,0,0,0,437.24,472.74Z"/><path class="cls-5" d="M478.15,505.82h0c0-.22-.09-.53,0-.63C478.06,505.29,478.15,505.6,478.15,505.82Z"/><path class="cls-5" d="M438.43,581.66c-2.76-1.3-5.48-2.84-8.62-1.67h0C433,578.82,435.67,580.36,438.43,581.66Z"/><path class="cls-5" d="M438.79,473.34a1.36,1.36,0,0,0-.21.28h0A1.36,1.36,0,0,1,438.79,473.34Z"/><polygon class="cls-2" points="397.5 78.01 323.65 63.19 291.32 56.37 274.57 61.76 327.37 123.72 365.3 134.73 383.76 137.81 410.2 83.65 397.5 78.01"/><path class="cls-6" d="M392.26,68.49l-5.38,10.72a13.56,13.56,0,0,1,1.28.61,31.53,31.53,0,0,1,5.17,3.79c3.9,3.29,7.3,7.13,12.92,8,2.63.41,5.11,0,7.86.7,2.2.58,2.57,3.39,4.13,2.92,2.85-.84,5.27.6,7.78,1.41,2.77.87,5,1.24,6.14-1.34.5-1.16,1.62-1.57,3.19-1,1.29.46,2.57.47,3-.59a10.29,10.29,0,0,1,2.4-3.34c.85-.85,1.77-1.64,2.65-2.49,2.81-2.76,3-2.77,6.08.81,2.94,3.42,4.75,7.31,7.56,10.85a25.92,25.92,0,0,0,2.19,2.44c2.87,2.81,5.24,5.84,9.32,6.74,1.92.43,3.88,1.62,5.8,2.13a4.58,4.58,0,0,0,5-1.35c.46,1.92-1.73,3.26-.77,4.37a1.9,1.9,0,0,0,.69.51h0l.07,0c1.53.72,4.08.18,6.19.27,1.32.06,1.43-1.78,1.51-3.11.16-2.72,1.35-4,4.82-1.85,2.09,1.27,4.32,2.46,6.84,2.37,1.72-.06,2.21,1.1,3,2.22,5.56,8.06,12.93,13.91,23.35,15.46,2.72.4,4.34,1.66,5.19,3.69,1.68,4,5,7.19,8.1,10.36,1.81,1.84,1.78,2.25,0,3.44-3.05,2-2.4,4.16,1.64,5.6,1.78.63,1.88,1.57,2.41,2.71,3.19,6.9,4.33,14.11,8,21,1.85,3.47,3.42,6.69,8.23,8.35,4.24,1.45,8.76,3.5,7.93,8.75-.18,1.22-.07,2.34-1.6,2.55s-3.33.37-4.5-1.23-2.53-3.15-2.57-5.18c0-2.19-1.49-3.8-4.11-4.5-3.06-.81-5.85-1.87-7.16-4.93a1.88,1.88,0,0,0-2.57-1l-.09.05c-3.17,1.4-4.4,14.5-1.24,16.65,5.48,3.69,10.13,8.52,16.55,11a15.39,15.39,0,0,1,3.61,2c2.7,2,4.61,4.61,6.5,7.19a8.63,8.63,0,0,1,1.22,7.56c0,.17-.08.35-.13.52-.18.61-.54,1.24.34,1.7a2.27,2.27,0,0,0,1,.22,1.14,1.14,0,0,0,.66-.13c1.16-.81,4-1.05,1-3.51-.94-.77-1.87-2.81.52-2.2,2.21.56,3.25-.37,4.74-.82,4.33-1.29,7.94.39,9.8,4.57,1.69,3.8,3.34,7.61,5.09,11.4,1.38,3,.18,5-3,4-5.24-1.72-8,.91-11.92,2.3a12.34,12.34,0,0,1-1.3.4,19.18,19.18,0,0,0,1.83.9,10.27,10.27,0,0,0,6.66.67,2.39,2.39,0,0,1,2.46.71c.18.22.09.92-.1,1a12.46,12.46,0,0,0-6.15,5c-.67.93-1.31,1.89-2,2.82-3,4.14-10.35,4.57-11.3,10.57-.2,1.31-2.27.82-3.49.42-6.26-2-8.94-1.05-12.67,2.74-2.68,2.73-5.22,6-10.35,6.32s-6.57,4.71-10,7c-1.65,1.08,2,2.63,1.34,4.24-.48,1.27,1.37,3.2-.08,4.08-3.52,2.14-1.22,6.85-4.07,9.24-.11.09.27.68.5,1,3.8,5.32,1.87,12.94-3.91,15.3-1.76.72-3,2.43-1.25,3.53,5,3.09,1.66,5.15.8,7.51-.31.85-.4,2.32-1.92,2a3.39,3.39,0,0,1-2.44-2.84A47.71,47.71,0,0,0,517,312.37a7.34,7.34,0,0,1-.54-3.89c.25-3.07,3.56-5.72-.16-9.43-.35-.35.44-1.61.78-2.4,1.31-3,4.55-5.47,4.71-8.33.4-6.75,8.09-11.16,4.19-19.08a.83.83,0,0,1,.13-.74c3.48-5-.84-9-4.73-13a9.08,9.08,0,0,1-.81-1.17l4.34,1.31c-2.26-1.62-3.75-2.88-2.09-3.95,1.3-.82,2.5.47,3.4,1.43,1.87,2,3.07,2.72,4.78.27,2.6-3.73,2-6.89-4.62-12.06,6.09,2.83,5.43.57,5.35-2s2.89-4.77-1.77-8c-1.49-1-1.51-5-4.27-7.61-4.24-4-7.74-8.5-12.94-11.9-2.37-1.53-4.84.33-5.65-1.21-1.69-3.21-6.87-1.95-7.82-5.85-.16-.66-2.78-2.09-4-1.23-1.83,1.31.8,2,1.55,3,.27.34.68.75.67,1.06-.08,1.21,2.23,2.75.62,3.52s-2.56-1-3.48-2c-.56-.64-.62-1.27-1.95-1-3.56.77-6.87-.84-9.83-3.06a9.12,9.12,0,0,0-4-2.11c-4.31-.75-8.59-1.57-11.64-5.36-.53-.66-1.81-1.4-2.81-.75-1.26.81-.43,1.94.45,2.7a45.44,45.44,0,0,0,6.12,4.59c4.49,2.71,9.78,3.17,14.06,6.49,2,1.57,4.77,3.19,8,1.59a5.48,5.48,0,0,1,6.89,3c.2.48.26,1,1,1.17,5.89,1.06,8.89,5.6,12.87,9.06-2.43.1-4.68-.13-6.29-2.35l-.42-.77a4.81,4.81,0,0,1-.42.38l-.12.08a3.91,3.91,0,0,1-1.17.68l-.29.09a1.14,1.14,0,0,1-.3.06.78.78,0,0,1-.3,0,1,1,0,0,1-.29,0H504l-.32-.05a1.55,1.55,0,0,1-.31-.07l-.15,0h0l-.36-.14-.37-.16-.08,0a7.84,7.84,0,0,1-.89-.54,9.61,9.61,0,0,1-.94-.73c-1.07-.93-1.88-.57-1.82.79.05.82,1.17,2.22-1.24,1.89-1.66-.22-3.23.57-4.68-1.34a40.62,40.62,0,0,0-4.18-4.57c-7.53-7.52-18.49-10.45-26.21-18.16-5.71-5.71-8.82-9.07-7.24-15.6a4.36,4.36,0,0,0-1.63-5.06c-2.71-2.17-2.33-6.07-1.47-6.68,1.93-1.36,2.74,2.14,4.52,3,.41.19,1,.4,1.16.7,1.17,2.31,5.4,5,4,6.35-2.44,2.37.22,3.41,1.3,5-1.66.58-4.1-.7-4.79,1.05-.31.81,1.3.89,1.95,1.42h0a1.48,1.48,0,0,1,2,.17h0c.69-1.72,3-.13,4.27-1.2-.68-1.52-2.39-4.89.43-3.88,3.33,1.19,2.5-.73,2.87-1.5.65-1.42-.12-2.4-2.2-2.71-1.14-.17-2.15-1-.87-1.84s.43-1.46-.57-2-2.24-1-2.86-2.11c-4.51-8.27-12.23-13-21.43-16.13-3.16-1.09-6.22-2.56-9.35-3.77-1.61-.62-1.31-1.2-.61-1.9l-7.91-1.3q-4-.64-8-1.34c-1.56-.27-3.09-.21-4.55-1.63-3.86-3.81-12.8-4.84-16.81-2.19,1.06,1.67,3.58.84,4.59,2.54,3.1,5.19,8.81,5.76,13.78,7.06,4,1.06,8.3.58,12.5,3.58-5.79.5-11,.68-16.28-1.81-6-2.83-12.07-5-18.58-5-1.08,0-3.63,0-3.92-2.15-.36-2.71-1.32-7.68-.63-7.78,5.86-.79,3.36-4.09,1.49-7.68,8.66,5.6,17.44,7,26.22,8.56,1.86.32,3.57.38,3.5-1.49s-1.91-2.32-3.87-2.81c-6-1.5-11.9-2.81-17.71-5.5-6.32-2.92-12.45-6.12-18.63-9.28-2.53-1.3-4.69-2.59-5.55-5.11a5.48,5.48,0,0,1-5.13-.66l-3.64,7.25a9.31,9.31,0,0,1,1.77,1.67c.84,1,1.18,2.06.28,2.85s-2.06-.18-2.8-.66c-.31-.2-.6-.43-.87-.64l-19.86,39.51c1.94.92,3.77,3.21,6.47,2.86a14.74,14.74,0,0,0,2.88-.65,5,5,0,0,1,3.89.58c4.2,2.15,7.74,5.31,11.21,8.17,6.06,5,9,5.35,12.41-.32.56-1,.81-2.22,2.74-1,7,4.24,13.44,2.06,19.88,1.33,2.05-.23,3.12-.3,4.42,1.5,2.05,2.84,4.71,3.73,8.18,3.15a20.52,20.52,0,0,0,13-7.9c.47-.59.81-1.56,1.84-1,3,1.56,5.15.13,7.59-.25s4.76-1.6,7.06-1.16c3.31.63,1.69,3.88,3.21,5.71.29.33.35.91.67,1.09,2.48,1.33,2.16,3.2,1.69,4.72-1.22,3.93.42,7.52,3.62,10.75a19.92,19.92,0,0,1,4.91,7.47,6.31,6.31,0,0,0,5.28,4.27,20.64,20.64,0,0,1,5.07,2c5.22,4,12.67,6.43,18,11.7,3.27,3.24,6,6.75,9.82,9.68,4.69,3.61,4.24,4.9-1.3,6.38-2.88.77-4.68,3-3.48,5,4.21,6.9-1.94,9.76-4.93,12.6-4.05,3.82-7.48,7.7-9.72,12.59-.61,1.34-.93,2.92-2.47,3.69-4.74,2.39-6.38,6.23-6.38,11.36a40.68,40.68,0,0,1-1,10c-1.64,6-5.76,11.12-6.53,17.65a35.34,35.34,0,0,1-1.35,5.36c-1.25,4.4-1,9.19-2.1,13.48-1.55,6.27-3.92,12.33-4.83,18.82-.81,5.8-.5,11.7,6.54,16.28,1.24.79.71,1.51.64,2.41-.78,10.3-5.29,19.3-9.45,28.11-5.45,11.53-13.09,22-18.62,33.58-1.13,2.36-1.31,5.12-2.82,7.22a43.19,43.19,0,0,0-7.22,14.6c-1.13,4.31-4,7.76-6.82,11-4.37,5-8.87,9.74-7.29,17.36.18.85.38,1.77-.47,2.48-2.91,2.44-5.52,5.18-8.59,7.47-5.28,4-11.39,7.21-15.26,12.41-2,2.71-3.75,5.63-7,7.24a19.08,19.08,0,0,0-5.55,4.54c-2.69,2.88-4.68,6.24-8.37,8.44s-7.5,4.51-9.82,7.7c-4.53,6.23-9,12.56-12.13,19.61-1.38,3.17-1.56,7.1-4.15,9.48-2.28,2.12-3.49,5-3,7.34,1.11,4.72-2.57,6-4.88,8.26-1.13,1.09-2.43,2-3.53,3.25-4.51,5-8.53,10.43-16.33,12.23a3.08,3.08,0,0,0-2.19,4.61c1,2.13-.14,2.36-1.75,2.8a6,6,0,0,1-6.1-1.3c-3-2.6-6.19-3.8-9.83-2.51a9.51,9.51,0,0,1-7.28-.52c-1.88-.82-4.1-.82-6.18-1.18-4.78-.85-9.58-1.81-14.37-2.53-4.28-.65-7.94-3.33-12.79-3.16-5.28.18-11.42-1.34-16.69-3.5-9-3.71-17.34-9.06-26.31-13.06-5.89-2.62-11.42-6-17.59-8.11-2.46-.86-5,0-7.31-1.84-5.93-4.65-11.51-9.4-16-15.34a77.07,77.07,0,0,1-5.49-8.69l-3.16,6.3c.22.52.44,1,.61,1.55,2.1,6.27,7,10.49,12.18,14.43,6.62,5,13.85,9.22,22.17,11.27,5.16,1.27,5.13,1.53,2.11,4.44a1.81,1.81,0,0,0-.62.88c-.24,1.76-.79,4.49,1,5.16,4,1.49,5.89,5.62,10.18,6.31.11,0,.24-.1.34-.17,2.38-2.07,4.47-.78,6.2,1.49a3.2,3.2,0,0,0,3.08,1.4c1.75-.17,2.11,1,3,2,3.58,3.84,1.2,6-.84,8.55-1.33,1.67-2.1,2.38-3.51-.23-.54-1-1.7-2.13-2-1-.88,3.11-2.57,2.52-5,.77a1.74,1.74,0,0,0-2-.1c-6.46,3.45-10.8,2.09-15.1-4.59-.67-1-1.8-1.71-2-.2-.35,2.22-1.89,1-2.82.4-2-1.26.12-1,.54-1.55.82-1,.12-1.42-.72-1.77-.27-.12-.55-.23-.8-.35-1.55,1.54-3.15-.09-4.29-.9a68.08,68.08,0,0,1-8.39-6.83c-4.94-4.9-4.81-5-6.15-10.2,0-.12-.17-.24-.26-.35-3.13-3.89-6.27-8.13-10-11.18-1.6-1.31-3.15-2.59-4.56-4L127,596.22c.65,1.29,2.18,2.54,4.75,4.2a4.52,4.52,0,0,1,2,2,1,1,0,0,1,.08.22,7.07,7.07,0,0,0,4.81,4.85A4.06,4.06,0,0,1,141,610c.88,2,2.42,2.7,4.7,2.49,3.09-.28,7.78,3.18,8.29,6,.6,3.32.58,6.58-1,9.34-1.25,2.21-.63,4.4,1.06,6.31C159.26,640,160.06,646.7,163,653a1.78,1.78,0,0,1-.31,1.78c-3.21,3.08-1.81,6.68.15,10.51,1.87,3.64,3.38,7.3,3.64,11.24a8,8,0,0,0,6.67,7.66c1.68.37,2.61,1.49,3.91,2.22,2.42,1.34,4.7,2.15,7.2,1.22,5.93-2.23,12.66-.32,19.09.26,3.46.31,5.94-.06,8.33-2.1a23.9,23.9,0,0,1,13.51-6.11c6.09-.65,12.27-1.93,14.91-7.45.42-.87,1.23-1,2.31-1.12,4.07-.62,8-1.65,12.06-2.28,3.31-.51,4.12-3.28,5.22-5.15,1.85-3.2,5-3.31,8.26-2.8,6,.95,11.37.28,17.05-.55a69.46,69.46,0,0,1,14-.53c5.12.33,9.21-.33,12.95-3.44a15,15,0,0,1,6.19-2.51c1.93-.43,4-.79,5.8-1.29a9.32,9.32,0,0,0,4.41-2.32c1.92-1.87,4.13-3.61,8.23-2.27,2.61.86,5.32.17,6.31-2.36.69-1.78,1.81-2.64,4.33-2.57a12.17,12.17,0,0,0,6.57-2c3.05-1.76,7.5-.57,11.21-1.28,4.16-.79,8.54-1,10.33-4.92.62-1.32,2.33-1.23,3.67-1.42,5.9-.85,9.9-3.54,11.71-8.5a59.56,59.56,0,0,0,3.51-12.44c1.05-5.5,5.49-9.55,8.86-14,2.54-3.33,4.82-6.83,9.32-8.45.37-.14.82-.38.91-.68,2.41-8.09,9.69-3.42,15.42-2.27,15.49,3.13,30.76,5,44.29-.55a28.58,28.58,0,0,0,8.94-5.55c2.51-2.39,4.36-5.55,7.58-7.45,1.95-1.16,2.6-2.87,1.6-5.32-1.49-3.64-.08-6.17,3.95-7.16,6-1.47,8.75-5.54,10.8-10.26.5-1.18,0-2.29-.54-3.44-1-2.18-2.06-4.34-2.95-6.53-1.32-3.33-2.66-6.66-.28-9.59a3.19,3.19,0,0,0,.52-2.88c-1.69-4.28,1.32-6.77,2.83-9.83.88-1.77,1.74-3.4,1.13-5.76-.55-2.16.76-3.86,3.22-4.47.95-.23,2.57-.29,2.69-.81,1.43-5.95,9.26-6.74,11.66-11.84a3.77,3.77,0,0,1,2.54-2.24,37.13,37.13,0,0,0,13.5-5.68c4.35-2.94,8.32-6.19,12.5-9.27,2.66-2,4-4.9,7.1-6.63a7.74,7.74,0,0,1,6.8-.87c1.41.47,3.13,1,3.78.23,2.32-2.74,7-3.43,7.65-7.63a19.55,19.55,0,0,0-2.9-13.26c-2.27-3.75-4.84-7.2-3-11.23.7-1.46-.7-3.33-1.89-4.85a103.93,103.93,0,0,1-7.14-10.59c-.89-1.51-1-2.55.33-3.36,3.37-2.11,2.24-5.19.27-8-2.74-3.87-1.53-6.61-.2-10,2.37-6.08,8.51-8.46,13.4-12.14s6.36-9.58,8.68-14.86c0-.11,0-.29.07-.37,3.89-4.46,1.88-10.71,3.38-15.9.61-2.13,1.12-4.09,4.34-4.45,3.7-.42,5.51-3,3.43-6.19-3.43-5.19-1.48-11-5.91-16-.44-.52-.2-2,.44-2.86,3.17-4.47,6.28-8.92,6.34-14.86a4.81,4.81,0,0,1,.38-1.72h0a9.73,9.73,0,0,1,1.67-2.65c4.63-5.42,2.29-11.21-2.08-17-2.57-3.41-3.67-7.25-5.6-10.8a22,22,0,0,0-2.21-3.35c-2.9-3.54-3-8.3-8.27-10.92a4.42,4.42,0,0,1-1.7-5.4,15.22,15.22,0,0,1,4.42-6.24c3.19-2.7,7.49-4.17,12.44-4.81,6.16-.78,7.83-4.95,5.15-10.28-5.25-10.45-12-20.59-13.35-32-.59-5-3.83-10.17-7.58-14.76a5.87,5.87,0,0,0-4.39-2.2,5.83,5.83,0,0,1-5.84-4.06c-1.94-5.32-7.72-6.45-11.85-9-2.08-1.28-3.73-2.28-4.46-4.14-2.65-6.68-5.13-13.39-7.66-20.09-.1-.25,0-.55-.08-.78-1.45-2.74-3.18-5.28-1.69-8.28.91-1.82-1.37-3.66-3.22-5.12-2.73-2.18-5.29-4.46-6.39-7.62-1.52-4.37-5.25-6.62-9.86-7.54-9.23-1.87-15.56-7.17-20.5-14.24-1.38-2-2.83-3.77-5.74-3.66-2.72.1-5-1.6-7.15-2.87-5.56-3.22-8.21-3.49-13.08-.72-3,1.72-11.49.9-13.79-2.09-2.55-3.32-6.49-5.79-8-9.72a17.33,17.33,0,0,0-3.71-5.31c-2.91-3-5.58-6-7.08-9.68a5,5,0,0,0-4.19-3.13c-6.12,0-12-2.75-18-3.64-3.39-.5-6.61.29-9.68.6-6,.59-11.52-.58-17.55-1.83C395.44,69.3,393.85,68.9,392.26,68.49Zm52,99.07c-3.39.4-6.11-1.62-8.8-1.26-.16,0-.77-.6-.78-.88,0-.75.58-1.11,1.41-.94C438.65,165,441.4,165,444.24,167.56ZM588.73,291.64q.06.78.15,1.56h0c0,.13,0,.26,0,.39s.05.53.05.78a10.72,10.72,0,0,1,0,1.5h0c0,.12,0,.23,0,.36h0a5.88,5.88,0,0,1-.16.7h0a6.5,6.5,0,0,1-.28.68,4.67,4.67,0,0,1-.61.91h0v0a30.28,30.28,0,0,1,4.36,4.82c1.11,1.65,1.4,3,.84,4.26a4.39,4.39,0,0,1-.85,1.21,10.41,10.41,0,0,1-2.36,1.78c.55-7.72.06-8.79-5.26-10.94,1-.68,3,.3,3.27-1.13,0,0,0,0,0,0v0c-2.79-1.59-5.76-3.11-3.83-6.38a1.19,1.19,0,0,0-.11-1c-3.38-1.32-1.67-3.27-1.82-5-.22-2.44.68-4.17,3.68-3.65s4.28,4,3.71,4.93A6.83,6.83,0,0,0,588.73,291.64ZM478.09,551.75c-2.79-2-3.37-4.2-2.95-6.58s1.71-3.8,5-2.6c0-.33.07-.65.11-1h0c-.18.14-.3.64-.62-.05l.62.05s0,0,0,0v0a10.16,10.16,0,0,1,4.41-7.23c.79-.57.95-1.87,2.56-1.1s2.32,1.9,1.91,3.34c-.5,1.8-.52,3.92-1.63,5.3-1.91,2.36,0,3.93,2.07,3.93,3.62,0,5.6,4,9.25,3.42,1.08-.17,2.09,1.7,1.21,1.92-3.61.93-5.14,3.94-8.11,5.38-1,.52-2.69.42-4.05.77-1.78.47-2-.42-1.28-1.57l-1.07.43a1.43,1.43,0,0,1-.27.09c-.09,0-.19.05-.28.09a5.52,5.52,0,0,1-.55.07,1.73,1.73,0,0,1-1.57-1C481.71,553.59,479.69,552.87,478.09,551.75Zm18.16-29.65c-.09,1.27-2.12,3,1.21,4.52.86.4-.08,2.83-1.07,4-.32.4-.78.79-1.4.46-1.72-1-1.28-2.39-1.44-3.61a10.88,10.88,0,0,1,1.61-8c2.28-3.14,4.95-6,6.28-9.74.09,2.24.86,4.6-2,5.74a2.51,2.51,0,0,0-.71.46,2.59,2.59,0,0,0-.57.8,2,2,0,0,0,.71,2.26C497.92,520.05,496.32,520.93,496.25,522.1Zm-46.36,61.12c2.31.44,4.09.78,5.47-.16,1-.68,1.59.14,2.19.73a1.71,1.71,0,0,1,.28,1,38.76,38.76,0,0,0-5.18,1.11C451.39,586.23,450.84,584.7,449.89,583.22ZM429.81,580c3.15-1.17,5.86.36,8.62,1.67a19.58,19.58,0,0,0,2.81,1.12c-3.05-.33-6-1.2-9-.75C430.8,582.24,429,582.17,429.81,580ZM425,567.74c1.14-.9,1.73.34,2.47,1,1.39,1.21,3.19,1.94,4.39.89,1.74-1.53,2.94-.46,4.47.71,2.17,1.65,3.63,3.74,5.33,5.7s1.43,2.61-.6,3.54-3.65.61-4.48-1.54c-1-2.67-2.78-2.94-4.67-1.89-1.32.73-2.82-.24-4.16.19a1.36,1.36,0,0,0,.51,1c.87.83,2.47,1.4,1.54,2.67l.05,0-.07,0,0,0c-3-.17-5.44-1.24-4.81-4.16a6.87,6.87,0,0,0-.73-5.56C423.25,568.79,424.22,568.31,425,567.74Zm53.92-61.86a.33.33,0,0,1-.13,0,4.85,4.85,0,0,1-.59-.1c0-.22-.1-.53,0-.63s.48,0,.74.05C478.91,505.46,479,505.78,478.87,505.88Zm-53,57c-4.81-3.16-2.35-3.33-.85-4,2-.91,3.57-2,3.71-4.42.09-1.6,1.22-3.18,3.49-2.16,1,.45,3,2.36,2.09,3.31-1.38,1.44.26,4.68-2.55,4.75s-5.16,1.14-6.11,3c-1.07,2.08-4.67,1.4-4.82,3.56-.11,1.72-.1,3.52-2.32,2.78-2.9-1,.82-1.77,0-2.92-.08-.1,0-.27,0-.39C417.1,562,419.5,561.1,425.85,562.93Zm-50.58,65.89c1.65-2.45,4.65-2.69,6.28-4.34.14-.15.88,0,1.12.2s.27,1,.26,1C380,625.81,379.84,629.85,375.27,628.82Zm13.51-26.68c2.31.51.94,1.65,1.16,2.5.44,1.76-1.35,2.54-1.66,5-1.18-2.64-2.23-4.29-1.74-5.92C386.8,602.88,387,601.75,388.78,602.14ZM221.21,616.05c-1.1,1.16-2.19,2.64-4.46.85-1.44-.62-2.92-1.5-2-2.71,1.34-1.84,3.77.17,5.68.14A1,1,0,0,1,221.21,616.05Zm.63,54.14c2.8-1.69,4.54-3.18,7-3.86,2.21-.63,4,.89,5.78,1.91.54.3.7,1.14.14,1.31-1.68.52-2.14,3.3-4.15,2.31C227.92,670.56,225.46,670.69,221.84,670.19Zm-68.39-63.48a5.38,5.38,0,0,1,1.78,4.51c-2.42-2.44-6.5-1.8-7.71-5.26a9.45,9.45,0,0,0-5.28-6c-2.25-1-.55-2.61-1.44-3.9-.35-.49.95-1.24,1.37-.86,2.87,2.52,5.7-.22,8.7,1.45C149.66,600,148.59,603.43,153.45,606.71Zm33,24.26c.24.89,1.53,1.56,2.32,2.22a1.79,1.79,0,0,0,2.06,0,3.76,3.76,0,0,1,.55-.23c1.94-.72,3.85.25,5.78,1.22,1.64.81,3.26,1.84,5.12,1.31,1.25-.35,2.45-.62,3.23,1.17a3.21,3.21,0,0,1,.3,1.64,1.47,1.47,0,0,1-1.57,1.37c-2.9,0-2.73,2.17-3.73,3.5s-1,2.59.94,4.09c2.83,2.15,5.32,4.6,2.16,7.35,1.88,1.07-3,3.86,2.31,4.37,1.85.17-1.11,1.55.36,3,2.23-3.3,4-2.11,6.91.85,2.13,2.16.62,2.75.44,4.1-.1.66,1.51,2-.5,1.79-1.16-.14-3.65,0-3.51-1.1.52-4-3.21-3-5.85-5.16a42.86,42.86,0,0,1,2.64,4.69c.47,1.29.23,2.74-1.8,1.78-3.14-1.48-3.51-.2-3.76,1.94a43.62,43.62,0,0,0-.54,5.19c0,2.09-.19,5.94-2.44,5.71-5-.48-9.2.74-13.7,1.36-1.59.22-3.48.56-4.5-1.05-1.55-2.43-3.06-3.37-6-2.68-1.45.35-2.39-1.35-2.31-2.56.33-4.5-2.64-8.53-4.51-12.69-1.16-2.6-1.9-4.85.64-6.64,1.51-1.06.7-2.84.15-4.38q-2.47-7-5.11-14c-.9-2.38-1.66-4.63.53-6.41.71-.58,1.39-1.79.17-2.77-2.17-1.74-.88-3.07-.59-4.63a29.91,29.91,0,0,0,.59-5.36c0-4.23-1.25-8.36-5.73-12.21-1.49-1.26-2.4-2.48-2.11-4.28.61.22,1,.33,1.42.51,1.48.68,1.43,3.57,3.4,2.82,2.2-.84.09-3-.41-4.58-.62-1.94-1.73-3.83-2.55-5.76-.39-.92-1.31-2,.17-2.61,1.23.86.82,2.89,3,3s1.25-2.17,2.71-3.36c3,5.25,8.87,8.91,8.24,15.08-.28,2.7,3.82,4,6.16,4.32,2.68.31,1.29-2.36,1.23-3.88-.05-1.36,0-2.74,1.57-3.09s2.39.92,3.37,1.88a18.75,18.75,0,0,0,2.79,2.3c6.17,4,6.71,10.37.48,12.86-4.82,1.93.44,5-.47,7.29A1.07,1.07,0,0,0,186.45,631Zm19.29-11.43c1,1.6.68,2.9-.5,3.81-.89.68-2.13.5-3.19-.54s-2-2.28-3.7-2.37c-1.75-.77-3.47-1.57-4-3.37-.1-.36.41-.94.84-1.12,2-.84,3.21.75,4.62,1.88.91.72,2.19,1.65,3.25,1.07S204.9,618.11,205.74,619.54ZM424.36,475.13a34.78,34.78,0,0,0,4.22,2.76c1.93,1.12,3,2.86,2.23,4.49s-2.71,1.26-4.58.36c-.55-.27-1.36-.92-1.7.11,1.37,1.39,5.38,2.44,4,3.88-1.76,1.76-2.18,4.38-4.83,5.67-3,1.44-6.16-1.14-9-.09,4.05,5,5.23,6.95,3.56,8.14-2.2,1.59-2.31,4.13-3.94,5.89s-3.55,3.16-6.44,2.64c-3.77-.68-5.06,1-6.21,3.45-1.6,3.39-4,6.92-8,7.6-6.55,1.12-9.17,4.58-10.06,9.87-.58,3.52-3.34,4.6-7.93,3-6.63-2.27-6.63-2.27-5.93,4,.35,3.11-5.47,8.53-9.2,8.63-2.62.07-5.86.83-4.54,3.39,1.83,3.52-.58,3.31-2.53,3.41-4.67.23-6.05,3.9-5.43,6.47.81,3.36-.76,4.69-2.45,6.44a2.85,2.85,0,0,1-4.14.53c-2-1.3-.83-2.32-.35-3.39,1.17-2.62,2.5-5.17,3.54-7.84A61.86,61.86,0,0,1,359,532.42c4.78-4.65,10.82-8.21,14.83-13.58,2.85-3.82,8.23-5.51,10.87-9.58s6.24-7.13,10.29-10,8.27-5.35,11.72-8.81c4.84-4.83,10.32-9.12,13.82-15A2.53,2.53,0,0,1,424.36,475.13Zm4.24-7.66c3.62.92,4.75.32,3.91-2.65-.68-2.38.83-3.56,2.82-2.49,2.82,1.53,5.8,2.88,8.46,4.69,1,.68,2.48,2.52.92,2.78-3,.49-5,3.89-9.49.6a4.52,4.52,0,0,0,1.17,1.71,6.08,6.08,0,0,0,.86.63l.08.05a10.81,10.81,0,0,1,1.22.83h0a1.28,1.28,0,0,1,.21-.28.19.19,0,0,1,.17-.07c.09,0,.19.12.33.39l-.71,0,0,0v0c-1.82,1.52-10.62,1.72-12.58.15-1.28-1-2.1-2.71-.88-3.48S426,466.79,428.6,467.47Zm20-12.28a6.61,6.61,0,0,1-.76,6.71c-1,1.34-2.15,1.46-3.55.34-1.85-1.47-4.05-2-6.08-3.05-4.65-2.27-4.66-2.26-1.43-5.3a3.35,3.35,0,0,0,1.14-3.35c-.3-1.65,1.86-2.78,2.84-2.33C444.11,449.74,447.27,452,448.61,455.19Zm10.66-11.37c-1.55,1.55-4.67.86-6.94-.29-2.52-1.27-1.07-3.28-1.3-5,2-2.05,4,0,6,.75C459.56,440.34,460.51,442.57,459.27,443.82Zm-3.39,6.42a6.32,6.32,0,0,1-5.82-1c-1.69-.72-3.05-1.53-3.65-3.18-.27-.77-2-1.54-.63-2.22,1-.47,2.18-1.75,3.42-.57,1.78,1.69,3.9,1.64,5.86,2.37,1.21.47,2.21.76,2.24,2.18C457.31,449,457.1,449.87,455.88,450.24ZM427.2,522.81c8.39-5.61,14.28-13.4,20.65-20.67,3.19-3.62,6.85-7,9.12-11.35,2.1-4,4.16-8.21,6.52-12,4.09-6.5,6.18-13.95,11-20.14,3.56-4.59,7.61-8.88,10.83-13.67,3.45-5.1,9.44-8.14,12.37-13.54a2.89,2.89,0,0,1,2.53-1.66c3.17,0,3-1.61,2.12-3.81-.66-1.66-1.11-3.41-.05-4.88.92-1.31,5.18-1,2-4.36-.07-.08.82-1.62,2.07-1.38,3.55.67,4.71-1.75,6.41-3.3,3.43-3.11,9.3-3.84,14.17-1.45,1.2.59,2.06,1.34,2.07,2.57.07,3.61,2.45,6.41,5.41,9a7.61,7.61,0,0,1,2.63,4.74c.8,5.76.9,11.3-1.95,16.18-1.3,2.25.09,5.76,1.85,6.35,6.19,2,12.32,5.33,18.72,5.48a7.63,7.63,0,0,1,6.14,2.83,7.34,7.34,0,0,0,4.29,2.93c1.79.39,2.7,2,4.78,4.1-3.88-.73-6.38-4-8.91-2.65-2,1-4.09.52-6.21.42a7.24,7.24,0,0,0-4.17.54c-4.45,2.62-9.21-.17-13.86-1.54a3,3,0,0,1-1.82-1.79,10.34,10.34,0,0,0-12.74-5.24c-4.55,1.55-7.27,5.84-13.19,5.34-.42,0-.7.74-1.18.92-8.48,3.22-13.35,10.06-20.16,15-2.92,2.09-6.73,5-6.09,9,.88,5.58-3.63,9.06-3.21,14.44.32,4.15-6,5.34-5.91,9.86,0,.36-.69.82-1.17.88-2.9.37-4.56,2-6.46,3.68-4.84,4.32-9.58,8.68-13.93,13.41-3.29,3.58-6.45,7.38-10.43,10.33-16.39,12.17-33.3,23.84-49.53,36.18-5.47,4.15-11.21,8.77-13,15.39-1.69,6.26-5.59,11.29-7.76,17.22-1.06,2.88-3.27,5.1-5.89,7.12-4.16,3.23-9.64,5.2-12.31,9.92-.86,1.53-3.23,2-5.51,2.13-1.84.09-4,.11-5.11,1.27-4.36,4.48-10.91,5.61-17.15,7.24a11.83,11.83,0,0,0-2.68,1c-1.45.82-3,1.53-1,3.77,2.15,2.41-3.22.49-1.93,2.73.15.28-1.33,1.1-1.57.73-2.43-3.87-4.69-1-6.78-.8-3.42.28-6.29-1.12-6.37-4.3-.06-2.23-1.27-2.59-2.85-2.7-3.59-.26-7.16-.34-10.71-.33a2.19,2.19,0,0,0-2.2,1.3c-.62,1.35-9.91,2.83-10.77,1.7-2.87-3.76-7.18-3.32-10.73-4.5-3.13-1-5.4-4.38-9.05-3.65-4.25.85-4.51-3.09-6.54-4.81s.54-2.34,1-3.47c.32-.78,1.09-1.35,1.44-2.12a3.2,3.2,0,0,0-1.14-4.32,3.89,3.89,0,0,0-4.88-.07c-1.79,1.28-3.18,2.82-2.47,5.44s.9,3.87-3.38,2.41-6.38-4.24-10.41-6.71c3,0,5.2-.39,7.27.12,1.92.47,2.57-.25,2.87-1.27.45-1.56,2.54-3,.54-4.92s-4.46-3.33-7.31-2.38c-2.53.84-4.05-.23-6.12-2.21-3.45-3.3-5-7.89-9.92-10.21a1.83,1.83,0,0,1-.59-2.83c.91-.89,1.77.21,2.5,1,1.57,1.62,3.15.92,4.46.43,2.34-.88,4.38-.3,6.71,1,3.76,2.14,7.56,4.27,11.48,6,6.72,3,8.14,2,6.55-4.5-.17-.7-1.31-1.43-.08-2.13,1.58.62,3.36,1.83,5,1.88,5.2.14,10.35,1.9,15.44,2.36s10.25,3,15,2.38c3.94-.5,7.2-.6,10.52,2.36a3,3,0,0,0,.82.43c5,2.25,8.88.38,12.89-1,2.77-.93,1.4-3.15,1.09-5-.22-1.3.54-1.39,1.67-1.5,4.36-.45,8.24-1.5,10.8-4.69,1.52-1.93,3.71-3.39,5.44-5.2s4-.68,5.57.4c2,1.34,1.51,8.29-.54,9.47-6.58,3.8-13.31,7.42-20.27,11.28,2.5,1.7,4.94,1.66,7.48,1.13,3.43-.73,6.35-2.43,10-2.76,8.3-.74,14.73-4.31,18.92-9.86a161.6,161.6,0,0,1,17.54-19.48C375,568.67,382,561.74,388,554.07c3.9-5,10.29-7.62,14.49-12.24,3.94-4.32,10.88-6,13.19-11.69C421.63,530.09,423.44,525.33,427.2,522.81ZM543.14,325.13c-.62,5.07-2.52,9.75-3.5,14.74-.67,3.47-.67,5.17,3.51,6.74,2.32.87,5.8,3,5.13,4.35-1.62,3.27.2,6.67.37,9.87.2,3.69-1.16,7.36,1.11,11.34,1.23,2.14.43,4.1-1.45,5.43-2.4,1.72-4.65,3.56-8.1,4-1.5.18-3.13.92-3.19,2.47-.07,2.2-1.51,3.9-1.34,6.22.19,2.68-6.42,7.91-9.36,7.84a3.55,3.55,0,0,1-3.13-1.55c-1.1-1.83-2.3-3.65-1.66-5.7,1.26-4-1-7.63-4.28-10.9-1.11-1.1-1.68-1.58-.88-2.91,2-3.3.59-5.75-3.81-7.38-1.72-.63-2-1.81-1.5-3,2.08-4.77,4.58-9.38,6.28-14.3,1.61-4.65,4.81-8.9,2.52-14.78-1.23-3.16,2-6.09,5.58-5.79,1.59.12,2.77.42,2,2.14-2,4.48,2.2,8,4.69,11.71.76,1.14,2.14,1.49,2.63.05.56-1.63,1.5-3.39,1.13-5.07-1.73-7.82,1.42-14.56,1.93-21.89a34.43,34.43,0,0,1,2.16-9.89c1.55-2.6,2.08-5.77,5.18-4.33,2.93,1.35,2.21,4.25,1.09,6.27a6.6,6.6,0,0,0-.3,6.63c1.13,2.4.77,4.74-1.72,6A1.78,1.78,0,0,0,543.14,325.13Z"/><path class="cls-6" d="M587.84,298.58v0h0v0h0l0,0h0Z"/><polygon class="cls-6" points="498.86 519.04 499 519 498.86 519.04 498.86 519.03 498.86 519.03 498.86 519.04"/><polygon class="cls-2" points="431.97 153.96 431.97 153.96 431.94 153.88 431.97 153.96"/><path class="cls-2" d="M386.88,79.21,366.4,120a5.48,5.48,0,0,0,5.13.66c.86,2.52,3,3.81,5.55,5.11,6.18,3.16,12.31,6.36,18.63,9.28,5.81,2.69,11.75,4,17.71,5.5,2,.49,3.8.84,3.87,2.81s-1.64,1.81-3.5,1.49c-8.78-1.54-17.56-3-26.22-8.56,1.87,3.59,4.37,6.89-1.49,7.68-.69.1.27,5.07.63,7.78.29,2.19,2.84,2.15,3.92,2.15,6.51,0,12.57,2.17,18.58,5,5.29,2.49,10.49,2.31,16.28,1.81-4.2-3-8.48-2.52-12.5-3.58-5-1.3-10.68-1.87-13.78-7.06-1-1.7-3.53-.87-4.59-2.54,4-2.65,12.95-1.62,16.81,2.19,1.46,1.42,3,1.36,4.55,1.63q4,.69,8,1.34l7.91,1.3.06-.05H432c.25-.32.62-.3,1,0,.09,0,.09.24.13.36L432,153.9s0,0,0,.07l-.09,0c-.7.7-1,1.28.61,1.9,3.13,1.21,6.19,2.68,9.35,3.77,9.2,3.15,16.92,7.86,21.43,16.13.62,1.15,1.75,1.55,2.86,2.11s1.89,1.09.57,2-.27,1.67.87,1.84c2.08.31,2.85,1.29,2.2,2.71-.37.77.46,2.69-2.87,1.5-2.82-1-1.11,2.36-.43,3.88-1.23,1.07-3.58-.52-4.27,1.2,3.74,1.22,6.76.22,9.8-1.26-3.21,3,4.23,6.06,1.2,9.26a54.42,54.42,0,0,0-4.34-5c-3-2.68-3.38.05-4,1.43-1.68-.62-.79-2-2-2.48-.58,1.09-.64,2.8-2.76,2.33-1.69-.37-.44-1.85-1.58-2.91-1.48-1.36,1.32-.78,1.67-1.57-.65-.53-2.26-.61-1.95-1.42.69-1.75,3.13-.47,4.79-1.05-1.08-1.57-3.74-2.61-1.3-5,1.39-1.33-2.84-4-4-6.35-.15-.3-.75-.51-1.16-.7-1.78-.88-2.59-4.38-4.52-3-.86.61-1.24,4.51,1.47,6.68a4.36,4.36,0,0,1,1.63,5.06c-1.58,6.53,1.53,9.89,7.24,15.6,7.72,7.71,18.68,10.64,26.21,18.16a40.62,40.62,0,0,1,4.18,4.57c1.45,1.91,3,1.12,4.68,1.34,2.41.33,1.29-1.07,1.24-1.89-.06-1.36.75-1.72,1.82-.79a9.61,9.61,0,0,0,.94.73,7.84,7.84,0,0,0,.89.54l.08,0,.37.16.36.14h0l.15,0,.31.07.32.05h.59a1.54,1.54,0,0,0,.3,0l.3-.06.29-.09a3.91,3.91,0,0,0,1.17-.68l.12-.08a4.81,4.81,0,0,0,.42-.38c.39-.2.84-.75,1.26-.07.33.52-.22.82-.84.84,1.61,2.22,3.86,2.45,6.29,2.35-4-3.46-7-8-12.87-9.06-.77-.14-.83-.69-1-1.17a5.48,5.48,0,0,0-6.89-3c-3.25,1.6-6,0-8-1.59-4.28-3.32-9.57-3.78-14.06-6.49a45.44,45.44,0,0,1-6.12-4.59c-.88-.76-1.71-1.89-.45-2.7,1-.65,2.28.09,2.81.75,3.05,3.79,7.33,4.61,11.64,5.36a9.12,9.12,0,0,1,4,2.11c3,2.22,6.27,3.83,9.83,3.06,1.33-.28,1.39.35,1.95,1,.92,1,2,2.75,3.48,2s-.7-2.31-.62-3.52c0-.31-.4-.72-.67-1.06-.75-1-3.38-1.71-1.55-3,1.19-.86,3.81.57,4,1.23.95,3.9,6.13,2.64,7.82,5.85.81,1.54,3.28-.32,5.65,1.21,5.2,3.4,8.7,7.86,12.94,11.9,2.76,2.64,2.78,6.59,4.27,7.61,4.66,3.19,1.69,5.29,1.77,8s.74,4.78-5.35,2c6.66,5.17,7.22,8.33,4.62,12.06-1.71,2.45-2.91,1.74-4.78-.27-.9-1-2.1-2.25-3.4-1.43-1.66,1.07-.17,2.33,2.09,3.95l-4.34-1.31a9.08,9.08,0,0,0,.81,1.17c3.89,4,8.21,8,4.73,13a.83.83,0,0,0-.13.74c3.9,7.92-3.79,12.33-4.19,19.08-.16,2.86-3.4,5.37-4.71,8.33-.34.79-1.13,2.05-.78,2.4,3.72,3.71.41,6.36.16,9.43a7.34,7.34,0,0,0,.54,3.89,47.71,47.71,0,0,1,4.32,11.91,3.39,3.39,0,0,0,2.44,2.84c1.52.32,1.61-1.15,1.92-2,.86-2.36,4.23-4.42-.8-7.51-1.79-1.1-.51-2.81,1.25-3.53,5.78-2.36,7.71-10,3.91-15.3-.23-.33-.61-.92-.5-1,2.85-2.39.55-7.1,4.07-9.24,1.45-.88-.4-2.81.08-4.08.61-1.61-3-3.16-1.34-4.24,3.41-2.25,4.88-6.65,10-7s7.67-3.59,10.35-6.32c3.73-3.79,6.41-4.75,12.67-2.74,1.22.4,3.29.89,3.49-.42,1-6,8.29-6.43,11.3-10.57.67-.93,1.31-1.89,2-2.82a12.46,12.46,0,0,1,6.15-5c.19-.07.28-.77.1-1a2.39,2.39,0,0,0-2.46-.71,10.27,10.27,0,0,1-6.66-.67,19.18,19.18,0,0,1-1.83-.9,12.34,12.34,0,0,0,1.3-.4c3.91-1.39,6.68-4,11.92-2.3,3.17,1,4.37-1,3-4-1.75-3.79-3.4-7.6-5.09-11.4-1.86-4.18-5.47-5.86-9.8-4.57-1.49.45-2.53,1.38-4.74.82-2.39-.61-1.46,1.43-.52,2.2,3,2.46.15,2.7-1,3.51a1.14,1.14,0,0,1-.66.13,2.27,2.27,0,0,1-1-.22c-.88-.46-.52-1.09-.34-1.7,0-.17.09-.35.13-.52a8.63,8.63,0,0,0-1.22-7.56c-1.89-2.58-3.8-5.23-6.5-7.19a15.39,15.39,0,0,0-3.61-2c-6.42-2.44-11.07-7.27-16.55-11-3.16-2.15-1.93-15.25,1.24-16.65l.09-.05a1.88,1.88,0,0,1,2.57,1c1.31,3.06,4.1,4.12,7.16,4.93,2.62.7,4.08,2.31,4.11,4.5,0,2,1.38,3.58,2.57,5.18s2.93,1.45,4.5,1.23,1.42-1.33,1.6-2.55c.83-5.25-3.69-7.3-7.93-8.75-4.81-1.66-6.38-4.88-8.23-8.35-3.64-6.85-4.78-14.06-8-21-.53-1.14-.63-2.08-2.41-2.71-4-1.44-4.69-3.57-1.64-5.6,1.78-1.19,1.81-1.6,0-3.44-3.12-3.17-6.42-6.35-8.1-10.36-.85-2-2.47-3.29-5.19-3.69-10.42-1.55-17.79-7.4-23.35-15.46-.78-1.12-1.27-2.28-3-2.22-2.52.09-4.75-1.1-6.84-2.37-3.47-2.12-4.66-.87-4.82,1.85-.08,1.33-.19,3.17-1.51,3.11-2.11-.09-4.66.45-6.19-.27l-.07,0h0a1.9,1.9,0,0,1-.69-.51c-1-1.11,1.23-2.45.77-4.37a4.58,4.58,0,0,1-5,1.35c-1.92-.51-3.88-1.7-5.8-2.13-4.08-.9-6.45-3.93-9.32-6.74a25.92,25.92,0,0,1-2.19-2.44c-2.81-3.54-4.62-7.43-7.56-10.85-3.08-3.58-3.27-3.57-6.08-.81-.88.85-1.8,1.64-2.65,2.49a10.29,10.29,0,0,0-2.4,3.34c-.44,1.06-1.72,1-3,.59-1.57-.57-2.69-.16-3.19,1-1.13,2.58-3.37,2.21-6.14,1.34-2.51-.81-4.93-2.25-7.78-1.41-1.56.47-1.93-2.34-4.13-2.92-2.75-.7-5.23-.29-7.86-.7-5.62-.84-9-4.68-12.92-8a31.53,31.53,0,0,0-5.17-3.79A13.56,13.56,0,0,0,386.88,79.21Zm26.4,70.28c-.21-.09-.33-.38-.49-.57l1-.39c.23.35.51.59.49.77C414.19,149.84,413.67,149.69,413.28,149.49Zm115,10.13c-.14-.36-.28-.72-.38-1.07a1.83,1.83,0,0,1-.08-.25,5.67,5.67,0,0,1-.29-1.56c0-.07,0-.13,0-.18a.71.71,0,0,1,.12-.34c2.4-3.18,5.62.55,8.32,1,1.66.3.68,2.88,0,4.3a10,10,0,0,1-.65,1.31l-.13.21a3.26,3.26,0,0,1-1,1.07,1.86,1.86,0,0,1-.2.1,2.48,2.48,0,0,1-1,.24,1.26,1.26,0,0,1-.28,0l-.34,0a5.53,5.53,0,0,1-1.22-.3l-.08,0a.67.67,0,0,1-.14-.09,2.87,2.87,0,0,1-.51-.49,2.07,2.07,0,0,1-.17-.24c-.08-.09-.15-.21-.24-.33s-.34-.53-.51-.83-.5-.92-.73-1.41c-.11-.25-.22-.49-.32-.73Zm-23.47-4.86c-3.07.77-4.86-.44-4.4-3.64.32-2.29-.38-4.13-3.4-5.63s-4.08-6.22-1.57-7.37l.5-.25c.17-.08.33-.17.49-.26.34-.18.66-.37,1-.57l.42-.28c.16-.11.3-.2.44-.31a4.56,4.56,0,0,0,.42-.31c.43-.32.83-.65,1.24-1,.8-.68,1.56-1.39,2.32-2.11l1.16-1.06.66-.56c.26-.23.52-.45.8-.66a14.16,14.16,0,0,1,1.14-.86c1-.68,1.78-1.77,3.27-.63,1.12.85.78,2,.29,2.9-.64,1.26-1.38,2.68.66,3.81,4.11,2.29,6.06,7.49,11.31,7.31,2,1.55,5.8,2,3.84,4.55-.16.2-.3.39-.45.6l-.71,1c-.38.51-.76,1-1.16,1.51-.13.17-.27.33-.41.49-.27.31-.56.62-.87.92l-.08.07a3.92,3.92,0,0,1-.37.34l-.14.11a6.08,6.08,0,0,1-.62.49,8.09,8.09,0,0,1-.68.46,10.55,10.55,0,0,1-1.11.59,11.18,11.18,0,0,1-3.23.89C511.92,155.75,508.32,153.88,504.83,154.76Zm-28.76,44.31c2.83-.16,5.05.9,7.12,3.64A13.25,13.25,0,0,1,476.07,199.07ZM455,153c3.17,1.37,3.37.45,3.15-2.1-.38-4.4,2.74-5.89,7.77-5.51a43.48,43.48,0,0,1,13.89,3.85c1.48.62,4,1.81,4.86.2,1.08-2.06-1.68-3.82-2.78-5.72-.9-1.53-2-2.28-3.58-1.55-3.28,1.52-6-.87-8.78-2.22-2.07-1-2.71-2.4-1.06-3.78s2-3.06,2.13-5c.36-4.75,2.35-5.59,7.73-3.42a9,9,0,0,1,1.24.62c4.05,2.55,6.7,1.7,8.66-1.35a10.6,10.6,0,0,1,.78-1.08,3.73,3.73,0,0,1,.32-.36,5.57,5.57,0,0,1,.82-.71,1.7,1.7,0,0,1,.22-.15,4.86,4.86,0,0,1,1.48-.65,2,2,0,0,1,.26-.06c1.36-.29,2.88.27,2.49,1.47-.07.23-.14.46-.2.7-.29,1-.54,2-.83,3-.08.31-.17.61-.27.92s-.19.6-.29.89-.15.41-.23.61l-.14.35a8.84,8.84,0,0,1-2.5,3.53,8.63,8.63,0,0,0,.7,13.49,9.76,9.76,0,0,1,3.73,5.57,9,9,0,0,0,3,4.93c2,1.71,3.79,4.33,2,6.4-4.23,4.87-14.73,4.94-21.75.42-2.92-1.88-4.55-1.36-5,1.44-.21,1.14.61,3.17-1.26,3.16s-3.12-1.77-4.09-3.16a10,10,0,0,1-1.13-3.08c-.2-.71-.76-1.65-1.35-1.11-1.95,1.77-3.87-1.27-5.56-.31-.77-3.07,3.21-3.68,2.51-7.59-1.28,1.63-1.72,2.57-2.52,3.14-1.39,1-2.53,3.47-4.23,2.61-2.65-1.36-2.43-4.29-2.58-6.58C452.44,153.71,453.13,152.23,455,153Zm-21.57-7.8c.39-.64.83-1.53,1.87-1,3.51,1.75,7.23,2.42,11.24,3.45.84,1.5,3.52,1.93,3.83,3.75.18,1.11-1.77,2-2.72,1.81-3.33-.56-6.34.27-9.55-.16C435.5,152.73,432.25,147.08,433.38,145.23Z"/><path class="cls-2" d="M432,154Z"/><path class="cls-2" d="M431.94,153.89l0,.07h-.09Z"/><path class="cls-2" d="M507.16,222.44h0a3.78,3.78,0,0,1-4.81.82A3.78,3.78,0,0,0,507.16,222.44Z"/><polygon class="cls-2" points="179.96 591.22 179.96 591.22 179.96 591.22 179.96 591.22 179.96 591.22"/><path class="cls-2" d="M154,542.55l-7.68,15.26c1.41,1.36,3,2.64,4.56,4,3.73,3,6.87,7.29,10,11.18.09.11.23.23.26.35,1.34,5.21,1.21,5.3,6.15,10.2a68.08,68.08,0,0,0,8.39,6.83c1.14.81,2.74,2.44,4.29.9.25.12.53.23.8.35.84.35,1.54.77.72,1.77-.42.5-2.51.29-.54,1.55.93.59,2.47,1.82,2.82-.4.24-1.51,1.37-.82,2,.2,4.3,6.68,8.64,8,15.1,4.59a1.74,1.74,0,0,1,2,.1c2.46,1.75,4.15,2.34,5-.77.34-1.15,1.5,0,2,1,1.41,2.61,2.18,1.9,3.51.23,2-2.56,4.42-4.71.84-8.55-.94-1-1.3-2.13-3-2a3.2,3.2,0,0,1-3.08-1.4c-1.73-2.27-3.82-3.56-6.2-1.49-.1.07-.23.2-.34.17-4.29-.69-6.19-4.82-10.18-6.31-1.81-.67-1.26-3.4-1-5.16a1.81,1.81,0,0,1,.62-.88c3-2.91,3.05-3.17-2.11-4.44-8.32-2-15.55-6.26-22.17-11.27-5.19-3.94-10.08-8.16-12.18-14.43C154.44,543.58,154.22,543.07,154,542.55Zm25.87,48,.09.66C179.69,591,179,590.73,179.87,590.54Zm-6.5-16c2.12.73,5.12,1.39,6.21,2.71,2.6,3.14,5.59,6.52,5.31,10.78-7.2-1.51-8.57-7.49-12.53-11.33C171.47,575.8,171.29,573.77,173.37,574.5Z"/><polygon class="cls-2" points="179.96 591.22 179.96 591.22 179.96 591.22 179.96 591.22"/><path class="cls-2" d="M180.78,591.57l-.82-.35h0Z"/><polygon class="cls-2" points="179.97 591.21 179.96 591.22 179.96 591.22 179.97 591.21"/><path class="cls-2" d="M219.46,594.26c4.89,2.32,6.47,6.91,9.92,10.21,2.07,2,3.59,3,6.12,2.21,2.85-.95,5.32.52,7.31,2.38s-.09,3.36-.54,4.92c-.3,1-1,1.74-2.87,1.27-2.07-.51-4.24-.12-7.27-.12,4,2.47,6.27,5.3,10.41,6.71s4.06.07,3.38-2.41.68-4.16,2.47-5.44a3.89,3.89,0,0,1,4.88.07,3.2,3.2,0,0,1,1.14,4.32c-.35.77-1.12,1.34-1.44,2.12-.47,1.13-3,1.8-1,3.47s2.29,5.66,6.54,4.81c3.65-.73,5.92,2.6,9.05,3.65,3.55,1.18,7.86.74,10.73,4.5.86,1.13,10.15-.35,10.77-1.7a2.19,2.19,0,0,1,2.2-1.3c3.55,0,7.12.07,10.71.33,1.58.11,2.79.47,2.85,2.7.08,3.18,2.95,4.58,6.37,4.3,2.09-.17,4.35-3.07,6.78.8.24.37,1.72-.45,1.57-.73-1.29-2.24,4.08-.32,1.93-2.73-2-2.24-.41-3,1-3.77a11.83,11.83,0,0,1,2.68-1c6.24-1.63,12.79-2.76,17.15-7.24,1.12-1.16,3.27-1.18,5.11-1.27,2.28-.11,4.65-.6,5.51-2.13,2.67-4.72,8.15-6.69,12.31-9.92,2.62-2,4.83-4.24,5.89-7.12,2.17-5.93,6.07-11,7.76-17.22,1.79-6.62,7.53-11.24,13-15.39,16.23-12.34,33.14-24,49.53-36.18,4-2.95,7.14-6.75,10.43-10.33,4.35-4.73,9.09-9.09,13.93-13.41,1.9-1.71,3.56-3.31,6.46-3.68.48-.06,1.19-.52,1.17-.88-.07-4.52,6.23-5.71,5.91-9.86-.42-5.38,4.09-8.86,3.21-14.44-.64-4,3.17-6.91,6.09-9,6.81-4.89,11.68-11.73,20.16-15,.48-.18.76-1,1.18-.92,5.92.5,8.64-3.79,13.19-5.34a10.34,10.34,0,0,1,12.74,5.24,3,3,0,0,0,1.82,1.79c4.65,1.37,9.41,4.16,13.86,1.54a7.24,7.24,0,0,1,4.17-.54c2.12.1,4.19.61,6.21-.42,2.53-1.31,5,1.92,8.91,2.65-2.08-2.06-3-3.71-4.78-4.1a7.34,7.34,0,0,1-4.29-2.93,7.63,7.63,0,0,0-6.14-2.83c-6.4-.15-12.53-3.46-18.72-5.48-1.76-.59-3.15-4.1-1.85-6.35,2.85-4.88,2.75-10.42,1.95-16.18a7.61,7.61,0,0,0-2.63-4.74c-3-2.63-5.34-5.43-5.41-9,0-1.23-.87-2-2.07-2.57-4.87-2.39-10.74-1.66-14.17,1.45-1.7,1.55-2.86,4-6.41,3.3-1.25-.24-2.14,1.3-2.07,1.38,3.16,3.34-1.1,3.05-2,4.36-1.06,1.47-.61,3.22.05,4.88.88,2.2,1.05,3.77-2.12,3.81a2.89,2.89,0,0,0-2.53,1.66c-2.93,5.4-8.92,8.44-12.37,13.54-3.22,4.79-7.27,9.08-10.83,13.67-4.8,6.19-6.89,13.64-11,20.14-2.36,3.77-4.42,7.94-6.52,12-2.27,4.39-5.93,7.73-9.12,11.35-6.37,7.27-12.26,15.06-20.65,20.67-3.76,2.52-5.57,7.28-11.56,7.33-2.31,5.72-9.25,7.37-13.19,11.69-4.2,4.62-10.59,7.22-14.49,12.24-6,7.67-13,14.6-20.1,21.42A161.6,161.6,0,0,0,350.32,595c-4.19,5.55-10.62,9.12-18.92,9.86-3.65.33-6.57,2-10,2.76-2.54.53-5,.57-7.48-1.13,7-3.86,13.69-7.48,20.27-11.28,2.05-1.18,2.5-8.13.54-9.47-1.57-1.08-3.84-2.2-5.57-.4s-3.92,3.27-5.44,5.2c-2.56,3.19-6.44,4.24-10.8,4.69-1.13.11-1.89.2-1.67,1.5.31,1.85,1.68,4.07-1.09,5-4,1.36-7.85,3.23-12.89,1a3,3,0,0,1-.82-.43c-3.32-3-6.58-2.86-10.52-2.36-4.79.62-9.95-1.92-15-2.38s-10.24-2.22-15.44-2.36c-1.6,0-3.38-1.26-5-1.88-1.23.7-.09,1.43.08,2.13,1.59,6.47.17,7.53-6.55,4.5-3.92-1.77-7.72-3.9-11.48-6-2.33-1.34-4.37-1.92-6.71-1-1.31.49-2.89,1.19-4.46-.43-.73-.75-1.59-1.85-2.5-1A1.83,1.83,0,0,0,219.46,594.26ZM493.75,452.48c5.12-5.35,11.8-9.59,11.13-18.34a3.54,3.54,0,0,0,4.62,1,6.55,6.55,0,0,1,3.79-.34c3.93.41,6.09,3.09,7,7.62.72,3.76-1.11,4.88-4.87,4.39a4.81,4.81,0,0,0-4.44,1.47c-4.06,4.07-11.51,2-16.23,4.86C494.63,453.14,494.22,452.79,493.75,452.48ZM405.35,545c2.63-2.82,6.9-3.81,9.71-6.34,2.16-1.93,3.95-3.92,7.93-2.59a1.76,1.76,0,0,0,2.34-1.13c1.42-4.86,7.31-6.33,9.57-10.57,2-3.69,8.17-3.67,9.19-7.87.83-1.54.78-1.51-1.11-3.61-.85-.93,0-1.25.71-1.7,2.43-1.55,5.66-2.41,6.82-5.07,1.81-4.17,7.65-5.09,9.16-9.52a2.54,2.54,0,0,1,3.62-1.06c1.63.85.37,1.82.36,2.75,0,.75.45,1.56.45,2.32,0,3,.09,7-2.42,7.84-4.87,1.65-7.4,4.77-10.29,8.09-3.25,3.75-7.14,7-10.14,11-1.59,2.13-2.17,4.92-4.33,6.5-6.83,5-12.56,11-20.31,15.13-3.19,1.7-5.57,2.2-9.37.74C403.26,548.36,402.89,547.62,405.35,545Zm-143,74.92c4.59,2.27,9.61,2.81,14.52,4.25,6.65,2,13.3,4.46,19.84,2.43,1.48-.45,2.38.2,1.76,1.64s-1.07,3.11-3.34,3.32c-4.05.37-8.26.41-12.22-1.4C275.92,627,269.16,623.36,262.32,619.92Z"/><path class="cls-2" d="M157.26,596.54c.82,1.93,1.93,3.82,2.55,5.76.5,1.55,2.61,3.74.41,4.58-2,.75-1.92-2.14-3.4-2.82-.39-.18-.81-.29-1.42-.51-.29,1.8.62,3,2.11,4.28,4.48,3.85,5.78,8,5.73,12.21a29.91,29.91,0,0,1-.59,5.36c-.29,1.56-1.58,2.89.59,4.63,1.22,1,.54,2.19-.17,2.77-2.19,1.78-1.43,4-.53,6.41q2.63,7,5.11,14c.55,1.54,1.36,3.32-.15,4.38-2.54,1.79-1.8,4-.64,6.64,1.87,4.16,4.84,8.19,4.51,12.69-.08,1.21.86,2.91,2.31,2.56,2.93-.69,4.44.25,6,2.68,1,1.61,2.91,1.27,4.5,1.05,4.5-.62,8.69-1.84,13.7-1.36,2.25.23,2.43-3.62,2.44-5.71a43.62,43.62,0,0,1,.54-5.19c.25-2.14.62-3.42,3.76-1.94,2,1,2.27-.49,1.8-1.78a42.86,42.86,0,0,0-2.64-4.69c2.64,2.12,6.37,1.14,5.85,5.16-.14,1.06,2.35,1,3.51,1.1,2,.24.4-1.13.5-1.79.18-1.35,1.69-1.94-.44-4.1-2.93-3-4.68-4.15-6.91-.85-1.47-1.49,1.49-2.87-.36-3-5.32-.51-.43-3.3-2.31-4.37,3.16-2.75.67-5.2-2.16-7.35-2-1.5-2-2.72-.94-4.09s.83-3.5,3.73-3.5a1.47,1.47,0,0,0,1.57-1.37,3.21,3.21,0,0,0-.3-1.64c-.78-1.79-2-1.52-3.23-1.17-1.86.53-3.48-.5-5.12-1.31-1.93-1-3.84-1.94-5.78-1.22a3.76,3.76,0,0,0-.55.23,1.79,1.79,0,0,1-2.06,0c-.79-.66-2.08-1.33-2.32-2.22a1.07,1.07,0,0,1,0-.68c.91-2.29-4.35-5.36.47-7.29,6.23-2.49,5.69-8.85-.48-12.86a18.75,18.75,0,0,1-2.79-2.3c-1-1-1.88-2.21-3.37-1.88s-1.62,1.73-1.57,3.09c.06,1.52,1.45,4.19-1.23,3.88-2.34-.27-6.44-1.62-6.16-4.32.63-6.17-5.23-9.83-8.24-15.08-1.46,1.19-.45,3.43-2.71,3.36s-1.75-2.1-3-3C156,594.5,156.87,595.62,157.26,596.54Zm12.91,57.81a5.87,5.87,0,0,0,4.59,1.71c2.6-.24,3.61,1.3,2.26,2.81-1.8,2-1.8,3.72.07,6.19,1.22,1.61-.35,2.88-1,4.17-.32.62-.93.6-1.81.21-4.48-2-6.94-7-5.11-10.63A9.3,9.3,0,0,0,170.17,654.35Z"/><path class="cls-2" d="M549.77,372.17c1.23,2.14.41,4.1-1.46,5.43-2.4,1.72-4.65,3.56-8.09,4-1.52.18-3.14.92-3.19,2.47-.08,2.2-1.52,3.89-1.35,6.22.19,2.67-6.42,7.9-9.36,7.84a3.58,3.58,0,0,1-3.14-1.55c-1.09-1.83-2.29-3.66-1.65-5.7,1.26-4-1-7.63-4.28-10.89-1.11-1.11-1.68-1.59-.88-2.92,2-3.3.59-5.75-3.81-7.37-1.72-.64-2-1.82-1.5-3,2.08-4.78,4.58-9.39,6.28-14.31,1.61-4.65,4.81-8.89,2.52-14.78-1.23-3.17,2-6.09,5.58-5.8,1.59.13,2.77.43,2,2.15-2,4.48,2.2,8,4.69,11.71.76,1.13,2.13,1.49,2.63.05.56-1.63,1.5-3.39,1.13-5.06-1.73-7.83,1.42-14.57,1.93-21.89A34.35,34.35,0,0,1,540,308.9c1.55-2.61,2.08-5.77,5.18-4.35,2.93,1.35,2.22,4.26,1.09,6.29a6.57,6.57,0,0,0-.3,6.61c1.13,2.41.77,4.75-1.72,6a1.78,1.78,0,0,0-1.11,1.67c-.62,5.07-2.53,9.74-3.5,14.74-.67,3.46-.68,5.17,3.51,6.74,2.31.87,5.8,3,5.13,4.35-1.62,3.27.19,6.67.37,9.87C548.85,364.53,547.48,368.19,549.77,372.17Z"/><path class="cls-2" d="M424.36,475.13a32.48,32.48,0,0,0,4.22,2.75c1.93,1.13,3,2.87,2.23,4.5s-2.72,1.26-4.57.36c-.55-.27-1.37-.92-1.7.11,1.37,1.39,5.37,2.44,3.95,3.87-1.76,1.77-2.18,4.4-4.83,5.68-3,1.44-6.16-1.14-9-.1,4,5,5.22,7,3.57,8.15-2.21,1.59-2.31,4.13-3.95,5.89s-3.55,3.16-6.44,2.64c-3.76-.68-5.06,1-6.21,3.45-1.61,3.39-4,6.92-8,7.61-6.54,1.11-9.17,4.58-10.06,9.86-.59,3.52-3.35,4.6-7.93,3-6.64-2.27-6.64-2.27-5.93,4,.35,3.11-5.47,8.54-9.19,8.64-2.63.07-5.87.84-4.55,3.38,1.82,3.53-.58,3.32-2.52,3.42-4.68.24-6.06,3.9-5.44,6.47.81,3.36-.76,4.69-2.45,6.44a2.85,2.85,0,0,1-4.14.53c-2-1.3-.83-2.32-.35-3.39,1.17-2.62,2.5-5.17,3.54-7.84A61.73,61.73,0,0,1,359,532.42c4.78-4.65,10.82-8.22,14.82-13.58,2.86-3.83,8.24-5.51,10.88-9.57s6.24-7.15,10.29-10,8.27-5.35,11.73-8.81c4.83-4.83,10.31-9.13,13.81-15C421.19,474.32,422.91,474,424.36,475.13Z"/><path class="cls-2" d="M486.66,555.73l0,0,0,0-.05,0h0Z"/><path class="cls-2" d="M475.14,545.17c.39-2.25,1.71-3.8,5-2.6l.12-1h0a10.2,10.2,0,0,1,4.41-7.23c.78-.58.95-1.87,2.56-1.1s2.32,1.9,1.91,3.35c-.5,1.79-.52,3.91-1.63,5.29-1.91,2.36,0,3.93,2.06,3.93,3.62,0,5.61,4,9.25,3.42,1.09-.17,2.09,1.69,1.22,1.92-3.61.93-5.14,3.93-8.11,5.38-1,.51-2.69.42-4.05.78-1.77.46-2-.43-1.28-1.58l.05,0,.14-.06-.16,0,0,.06a6.83,6.83,0,0,1-2.17.67,1.7,1.7,0,0,1-1.57-1c-1.16-1.88-3.18-2.58-4.77-3.71C475.3,549.76,474.73,547.55,475.14,545.17Z"/><path class="cls-2" d="M480.13,542.57l.12-1h0Z"/><path class="cls-2" d="M486.61,555.75h0a6.83,6.83,0,0,1-2.17.67A6.83,6.83,0,0,0,486.61,555.75Z"/><path class="cls-2" d="M486.61,555.75l0-.06,0,0Z"/><path class="cls-2" d="M432.51,464.81c-.67-2.37.83-3.55,2.81-2.48a95.52,95.52,0,0,1,8.47,4.69c1,.68,2.49,2.53.92,2.78-3,.49-5,3.89-9.49.6a4.4,4.4,0,0,0,1.17,1.7,7,7,0,0,0,.85.64l.09.06a8.65,8.65,0,0,1,1.22.82c-1.82,1.52-10.62,1.73-12.58.16-1.28-1-2.1-2.72-.88-3.49s.92-3.5,3.51-2.83C432.23,468.39,433.35,467.79,432.51,464.81Z"/><path class="cls-2" d="M437.33,472.8l-.09-.06Z"/><path class="cls-2" d="M438.57,473.64h0l0,0h0Z"/><path class="cls-2" d="M438.55,473.62h0v0Z"/><path class="cls-2" d="M427.42,568.73c1.39,1.22,3.19,1.94,4.39.89,1.74-1.53,2.94-.47,4.47.7,2.17,1.66,3.63,3.75,5.33,5.71s1.43,2.62-.6,3.54-3.66.61-4.48-1.54c-1-2.66-2.78-2.94-4.67-1.89-1.32.73-2.82-.24-4.16.19a1.36,1.36,0,0,0,.5,1c.88.83,2.48,1.4,1.55,2.68-3-.18-5.44-1.25-4.82-4.18a6.73,6.73,0,0,0-.73-5.55c-.95-1.45,0-1.94.75-2.51C426.09,566.84,426.68,568.08,427.42,568.73Z"/><path class="cls-2" d="M429.73,580h0l0,0h0Z"/><path class="cls-2" d="M429.73,580l0,0h.06l-.08,0Z"/><path class="cls-2" d="M447.86,461.9c-1,1.34-2.16,1.46-3.56.34-1.84-1.47-4.05-2-6.08-3.05-4.66-2.27-4.65-2.26-1.42-5.3a3.35,3.35,0,0,0,1.13-3.35c-.31-1.65,1.86-2.78,2.84-2.33,3.34,1.53,6.5,3.82,7.84,7A6.61,6.61,0,0,1,447.86,461.9Z"/><path class="cls-2" d="M425.85,562.93c-4.8-3.16-2.34-3.33-.86-4,2-.92,3.58-2,3.71-4.42.1-1.61,1.23-3.18,3.5-2.16,1,.46,3,2.36,2.09,3.31-1.38,1.45.27,4.67-2.55,4.75s-5.16,1.15-6.11,3c-1.07,2.07-4.67,1.4-4.82,3.56-.11,1.72-.1,3.52-2.32,2.79-2.9-1,.82-1.78,0-2.93-.07-.1,0-.26,0-.39C417.11,562,419.5,561.1,425.85,562.93Z"/><path class="cls-2" d="M587.85,298.56c-2.79-1.59-5.77-3.11-3.83-6.38a1.23,1.23,0,0,0-.11-1c-3.38-1.32-1.67-3.27-1.82-5-.21-2.44.68-4.17,3.68-3.65s4.28,4,3.71,4.94a6.72,6.72,0,0,0-.75,4.23C588.91,294.1,589.53,296.63,587.85,298.56Z"/><path class="cls-2" d="M588.73,291.64c.18,2.46.8,5-.88,6.92h0C589.53,296.63,588.91,294.1,588.73,291.64Z"/><path class="cls-2" d="M587.85,298.56h0Z"/><path class="cls-2" d="M142.17,595.17c2.87,2.54,5.7-.2,8.69,1.46-1.2,3.4-2.27,6.8,2.6,10.08a5.36,5.36,0,0,1,1.76,4.51c-2.41-2.44-6.5-1.8-7.7-5.26a9.53,9.53,0,0,0-5.28-6c-2.25-1-.55-2.61-1.45-3.9C140.45,595.55,141.75,594.8,142.17,595.17Z"/><path class="cls-2" d="M497.46,526.62c.86.4-.08,2.84-1.06,4-.33.4-.79.79-1.41.45-1.72-.94-1.28-2.39-1.45-3.6a10.92,10.92,0,0,1,1.61-8c2.29-3.14,5-6,6.29-9.74.09,2.24.86,4.6-2,5.74a2.51,2.51,0,0,0-.71.46,2.27,2.27,0,0,0-.56.8,2,2,0,0,0,.7,2.25c-.93,1-2.54,1.9-2.61,3.08S494.13,525.06,497.46,526.62Z"/><path class="cls-2" d="M498.16,516.78a2,2,0,0,0,.7,2.25h0A2,2,0,0,1,498.16,516.78Z"/><path class="cls-2" d="M450.06,449.27c-1.69-.72-3.05-1.53-3.65-3.18-.28-.77-2-1.54-.63-2.22,1-.47,2.18-1.75,3.42-.57,1.78,1.68,3.9,1.64,5.85,2.37,1.22.46,2.23.76,2.25,2.18,0,1.14-.2,2-1.42,2.39A6.32,6.32,0,0,1,450.06,449.27Z"/><path class="cls-2" d="M205.23,623.35c-.88.68-2.12.49-3.19-.54s-2-2.28-3.69-2.37c-1.75-.77-3.48-1.57-4-3.37-.1-.36.41-.94.84-1.12,2-.83,3.2.75,4.62,1.88.91.73,2.2,1.65,3.25,1.07s1.82-.79,2.67.64C206.69,621.14,206.42,622.44,205.23,623.35Z"/><path class="cls-2" d="M452.33,443.54c-2.52-1.28-1.08-3.29-1.3-5,2-2,4,0,6,.76,2.56,1,3.51,3.25,2.27,4.5C457.72,445.36,454.6,444.68,452.33,443.54Z"/><path class="cls-2" d="M234.58,668.24c.54.3.69,1.14.14,1.31-1.68.52-2.14,3.3-4.15,2.31-2.64-1.3-5.11-1.17-8.73-1.67,2.8-1.69,4.54-3.18,6.95-3.86C231,665.7,232.76,667.23,234.58,668.24Z"/><path class="cls-2" d="M589.85,310.67c.55-7.72.06-8.79-5.26-10.94,1-.68,3,.31,3.27-1.13a30.78,30.78,0,0,1,4.36,4.82c1.1,1.65,1.4,3,.84,4.26a4.58,4.58,0,0,1-.85,1.22A10.71,10.71,0,0,1,589.85,310.67Z"/><path class="cls-2" d="M587.86,298.6a30.78,30.78,0,0,1,4.36,4.82,30.78,30.78,0,0,0-4.36-4.82Z"/><path class="cls-2" d="M587.87,298.57s0,0,0,0l0,0Z"/><path class="cls-2" d="M593.06,307.68a4.58,4.58,0,0,1-.85,1.22A4.58,4.58,0,0,0,593.06,307.68Z"/><path class="cls-2" d="M220.4,614.33a1,1,0,0,1,.8,1.72c-1.1,1.16-2.18,2.64-4.45.86-1.45-.63-2.92-1.51-2-2.72C216.06,612.35,218.49,614.36,220.4,614.33Z"/><path class="cls-2" d="M438.43,581.66a18.08,18.08,0,0,0,2.81,1.12c-3.05-.33-6-1.2-9-.75-1.42.21-3.24.14-2.42-2C433,578.82,435.67,580.36,438.43,581.66Z"/><path class="cls-2" d="M429.81,580h0l-.08,0h0Z"/><path class="cls-2" d="M429.81,580h0l-.07,0Z"/><path class="cls-2" d="M429.73,580l.08,0-.07,0Z"/><polygon class="cls-2" points="429.73 580.01 429.74 580.01 429.73 580.01 429.73 580.01 429.73 580.01"/><path class="cls-2" d="M382.67,624.68c.23.2.27,1,.26,1-3,.16-3.09,4.21-7.66,3.17,1.65-2.45,4.66-2.69,6.28-4.34C381.68,624.34,382.43,624.47,382.67,624.68Z"/><path class="cls-2" d="M434.66,165.42c0-.75.58-1.11,1.4-.95,2.59.51,5.34.5,8.18,3.09-3.39.4-6.11-1.63-8.8-1.26C435.28,166.32,434.67,165.7,434.66,165.42Z"/><path class="cls-2" d="M388.79,602.14c2.29.51.93,1.65,1.15,2.5.44,1.76-1.35,2.54-1.66,5-1.18-2.64-2.23-4.29-1.74-5.92C386.79,602.89,387,601.75,388.79,602.14Z"/><path class="cls-2" d="M455.36,583.07c1-.7,1.59.13,2.18.72a1.6,1.6,0,0,1,.29,1,40.39,40.39,0,0,0-5.18,1.11c-1.26.38-1.81-1.16-2.76-2.63C452.19,583.66,454,584,455.36,583.07Z"/><path class="cls-2" d="M478.15,505.82c0-.22-.09-.53,0-.63s.47,0,.72.06c0,.22.1.53,0,.63a.4.4,0,0,1-.13,0C478.58,505.92,478.34,505.84,478.15,505.82Z"/><path class="cls-2" d="M478.15,505.82h0c.19,0,.43.1.6.1C478.58,505.92,478.34,505.84,478.15,505.82Z"/><path class="cls-2" d="M460.2,190.78a1.49,1.49,0,0,1,2,.16C461.58,191.55,460.9,191.27,460.2,190.78Z"/><path class="cls-2" d="M479.61,541.55l.62,0C480.05,541.74,479.93,542.23,479.61,541.55Z"/><path class="cls-2" d="M480.23,541.59l0,0v0Z"/><polygon class="cls-2" points="480.25 541.57 480.27 541.59 480.25 541.57 480.25 541.57"/><path class="cls-2" d="M480.25,541.59h0v0h0Z"/><path class="cls-2" d="M480.25,541.57l0,0h0Z"/><polygon class="cls-2" points="498.86 519.03 498.86 519.04 498.86 519.03 499 519 498.86 519.04 498.86 519.03"/><polygon class="cls-2" points="498.86 519.03 498.86 519.03 498.86 519.04 498.86 519.03"/><path class="cls-2" d="M439,473.27c.09,0,.2.13.33.39l-.71,0a1.36,1.36,0,0,1,.21-.28A.2.2,0,0,1,439,473.27Z"/><path class="cls-2" d="M438.58,473.62h0v0h0Z"/><path class="cls-2" d="M438.56,473.62h0v0Z"/><rect class="cls-2" x="438.57" y="473.64"/><polygon class="cls-2" points="438.57 473.64 438.56 473.62 438.57 473.64 438.57 473.64"/><path class="cls-1" d="M455,153c3.18,1.38,3.36.46,3.14-2.09-.37-4.4,2.75-5.89,7.77-5.51a44,44,0,0,1,13.9,3.84c1.47.63,4,1.82,4.85.21,1.09-2.07-1.66-3.82-2.77-5.72-.9-1.53-2-2.27-3.58-1.55-3.28,1.52-6-.87-8.78-2.22-2.07-1-2.71-2.4-1.06-3.77s2-3.07,2.13-5.05c.36-4.76,2.35-5.59,7.73-3.41a8,8,0,0,1,1.25.61c4,2.55,6.69,1.7,8.65-1.35a6,6,0,0,1,3.88-3c1.36-.28,2.88.28,2.5,1.48-1.13,3.49-1.6,7.62-4.48,9.95a8.64,8.64,0,0,0,.71,13.49,9.65,9.65,0,0,1,3.73,5.57,8.93,8.93,0,0,0,3,4.92c2,1.72,3.8,4.34,2,6.41-4.24,4.87-14.74,4.94-21.75.42-2.92-1.88-4.55-1.35-5,1.44-.21,1.14.61,3.17-1.26,3.17s-3.11-1.78-4.09-3.17a9.93,9.93,0,0,1-1.13-3.08c-.2-.72-.76-1.64-1.35-1.11-1.95,1.77-3.87-1.27-5.56-.31-.78-3.07,3.2-3.68,2.51-7.59-1.28,1.63-1.72,2.57-2.53,3.14-1.38,1-2.52,3.48-4.23,2.6-2.64-1.35-2.41-4.28-2.57-6.57C452.44,153.72,453.13,152.24,455,153Z"/><path class="cls-1" d="M500.43,151.11c.33-2.28-.37-4.13-3.4-5.62s-4.07-6.22-1.58-7.37c4.37-2,6.87-5.66,10.56-8.22,1-.68,1.79-1.78,3.28-.63,1.12.85.77,2,.3,2.9-.65,1.26-1.39,2.68.65,3.81,4.11,2.29,6.06,7.49,11.32,7.31,2,1.54,5.79,2,3.83,4.55-2.4,3.18-4.38,6.73-9.83,7.44-3.64.47-7.24-1.4-10.73-.52C501.76,155.53,500,154.32,500.43,151.11Z"/><path class="cls-1" d="M435.25,144.21c3.51,1.75,7.24,2.42,11.23,3.45.85,1.5,3.53,1.94,3.83,3.76.19,1.11-1.75,2-2.72,1.81-3.31-.57-6.33.25-9.54-.17-2.55-.33-5.8-6-4.67-7.84C433.77,144.58,434.21,143.69,435.25,144.21Z"/><path class="cls-6" d="M536,157.24c1.66.28.68,2.86,0,4.29-.82,1.9-1.78,3.71-4.89,2.61-1.35-.48-4.26-6.89-3.48-7.92C530.08,153,533.3,156.77,536,157.24Z"/><path class="cls-6" d="M472,189.68c-3.22,3,4.24,6.06,1.2,9.26a51.54,51.54,0,0,0-4.34-4.95c-3-2.69-3.37,0-4,1.42-1.68-.62-.79-2-2-2.48-.58,1.09-.64,2.79-2.76,2.33-1.69-.37-.44-1.84-1.58-2.91-1.47-1.36,1.33-.78,1.67-1.57h0c.7.49,1.38.77,2,.16h0C465.94,192.16,469,191.16,472,189.68Z"/><polygon class="cls-6" points="460.19 190.78 460.2 190.78 460.2 190.78 460.19 190.78"/><polygon class="cls-6" points="462.19 190.94 462.2 190.94 462.19 190.95 462.19 190.94"/><polygon class="cls-6" points="462.19 190.94 462.19 190.94 462.19 190.95 462.19 190.94"/><polygon class="cls-6" points="460.2 190.78 460.2 190.78 460.2 190.78 460.2 190.78"/><path class="cls-6" d="M483.19,202.71a13.24,13.24,0,0,1-7.12-3.63C478.9,198.91,481.12,200,483.19,202.71Z"/><path class="cls-6" d="M413.27,149.5c-.2-.1-.32-.39-.48-.59l1-.38c.23.35.5.59.49.76C414.18,149.84,413.67,149.69,413.27,149.5Z"/><path class="cls-6" d="M433.06,153.86c.09.06.09.25.12.37l-1.16-.32C432.28,153.58,432.64,153.6,433.06,153.86Z"/><path class="cls-6" d="M432,153.91s0,0,0,.05l0-.07Z"/><path class="cls-6" d="M508.42,222.37c.33.52-.22.82-.84.84l-.42-.77C507.55,222.24,508,221.7,508.42,222.37Z"/><path class="cls-6" d="M507.58,223.21l-.42-.77h0Z"/><path class="cls-6" d="M173.37,574.5c2.12.73,5.12,1.39,6.21,2.71,2.6,3.15,5.6,6.52,5.31,10.77-7.2-1.5-8.57-7.48-12.53-11.31C171.47,575.79,171.28,573.77,173.37,574.5Z"/><path class="cls-6" d="M179.87,590.54l.09.67C179.7,591,179,590.74,179.87,590.54Z"/><polygon class="cls-6" points="179.96 591.21 179.97 591.21 179.96 591.22 179.96 591.21"/><polygon class="cls-6" points="179.96 591.22 179.96 591.22 179.97 591.21 179.96 591.22 179.96 591.22"/><path class="cls-1" d="M415.06,538.67c2.15-1.94,3.95-3.93,7.94-2.6a1.75,1.75,0,0,0,2.33-1.13c1.43-4.85,7.31-6.33,9.57-10.57,2-3.69,8.17-3.67,9.19-7.87.83-1.53.78-1.5-1.11-3.61-.84-.93,0-1.25.71-1.71,2.42-1.54,5.66-2.4,6.82-5.07,1.81-4.16,7.64-5.08,9.16-9.51a2.54,2.54,0,0,1,3.62-1.06c1.63.84.37,1.82.37,2.75,0,.75.44,1.56.44,2.31,0,3,.08,7-2.42,7.85-4.86,1.65-7.4,4.77-10.29,8.09-3.25,3.74-7.14,7-10.14,11-1.58,2.11-2.18,4.91-4.33,6.49-6.83,5-12.56,11-20.31,15.13-3.19,1.7-5.57,2.21-9.37.74-4-1.54-4.36-2.27-1.9-4.9C408,542.19,412.25,541.2,415.06,538.67Z"/><path class="cls-1" d="M504.89,434.14a3.54,3.54,0,0,0,4.62,1,6.6,6.6,0,0,1,3.78-.34c3.94.42,6.09,3.09,7,7.61.71,3.77-1.11,4.88-4.87,4.39a4.9,4.9,0,0,0-4.44,1.48c-4.06,4.06-11.51,2-16.23,4.86-.07,0-.48-.31-.94-.63C498.87,447.12,505.55,442.89,504.89,434.14Z"/><path class="cls-1" d="M296.68,626.6c1.48-.46,2.38.2,1.75,1.65s-1.06,3.1-3.33,3.31c-4.05.37-8.26.41-12.22-1.4-7-3.17-13.72-6.8-20.56-10.24,4.59,2.27,9.61,2.81,14.51,4.25C283.49,626.12,290.14,628.63,296.68,626.6Z"/><path class="cls-1" d="M174.76,656.05c2.6-.24,3.62,1.31,2.25,2.82-1.8,2-1.79,3.72.08,6.19,1.21,1.61-.35,2.88-1,4.16-.33.63-.93.62-1.81.22-4.48-2-6.94-7-5.11-10.64a9.22,9.22,0,0,0,1-4.44A5.84,5.84,0,0,0,174.76,656.05Z"/><polygon class="cls-6" points="486.8 555.67 486.66 555.73 486.64 555.7 486.8 555.67"/><path class="cls-2" d="M388.67,72.58h0l.77.24-.77-.23-.05,0h.05Z"/><path class="cls-2" d="M388.62,72.57h0c-5.06-1.78-10.23-1.51-15.38-2.63C378.39,71.06,383.56,70.79,388.62,72.57Z"/><path class="cls-2" d="M388.62,72.57l0,0,0,0Z"/><path class="cls-2" d="M388.67,72.58h0l0,0,.79.28-.77-.24Z"/><polygon class="cls-2" points="388.67 72.58 388.65 72.54 388.67 72.58 388.67 72.58"/><path class="cls-2" d="M330.27,147c-.66,1.1-1.38,1.79-3.49,1.75C327.92,147.6,328.44,146.65,330.27,147Z"/><path class="cls-6" d="M358.58,61.54s7.89,5.82,13.76,10.19c3,2.19,5.38,4,6.07,4.55,2,1.61,9.75,3.55,9.75,3.55l4.1-11.34s-26.43-10.08-29.83-9.08-16.07,0-16.07,0Z"/><path class="cls-6" d="M75.93,551s20.09,7.82,26.75,4.79,20.07,1.47,23.2,4.16,20.44-2.09,20.44-2.09L127,596.23S83,568.92,75.38,552.05Z"/><path class="cls-6" d="M366.4,120s-32.38-8.67-43.84-13.14-8.21-20.6-19.21-26.2-5.15-17.2-6.5-14.52c-4.49,8.93-6.76,18.32-3,22.8s6,11.19,6.9,18.35,4.07,19.75,10.28,22.41,15.61,1.79,14.69,12.52-7.17,7.59.87,13.87,13.83,9.31,12.49,10.26,2.16,3.63,2.16,3.63Z"/><path class="cls-2" d="M357,124.8a28.84,28.84,0,0,1,3.47,1.08,14.71,14.71,0,0,1,2.26,1.32l-1.61,3.22c-1.67-1.35-3-3.08-4.88-4.29C355.32,125.55,355.76,124.58,357,124.8Z"/><path class="cls-6" d="M151.41,540.28a74.07,74.07,0,0,1-3.12-7.16c-.88-2.69-3.56-4-4.46-4.49a45,45,0,0,0-4.91-1.35S151,527.76,151,530s6.18,6.26,6.18,6.26l-3.17,6.3Z"/><path class="cls-6" d="M239.19,62.9s21.66,9.82,28.91,14.53,3.25-5.13,17.54,4.29S297.72,80,297.72,80L294.25,72l2.6-5.92s5.82-2.67-8.93-6.73,57.22,10.85,62.58,15.78,7.58,9.41,13.85,8.08,5.21-3.93,10.65-.16,8.33,6.18,9.8.29-7-12.08-8.57-11.9-5.82-4.29-5.82-4.29l-4-3.21a76.73,76.73,0,0,0-11.11-3c-7-1.43-53.45-4.76-53.45-4.76"/><path class="cls-1" d="M263.8,91.14c-1.83-.8-3.27-2.29-5-3.23a7.75,7.75,0,0,0-8.51.56c-2.3,2-2.75,5.94-.57,8,1.92,1.84,4.93,1.75,7.59,1.54a8.6,8.6,0,0,0,3.23-.67,3,3,0,0,0,1.79-2.58c1.89.94,3.4,2.59,5.4,3.3s4.85-.21,4.91-2.32c1.83,3.56,7.13,7.42,11.41,6.31,3.71-1,1.58-7.78.05-10.83a8.41,8.41,0,0,0-9.1-4.54C270.09,87.54,270,93.83,263.8,91.14Z"/><path class="cls-1" d="M252,78.3c-.31.47-.64,1.06-.4,1.58a1.68,1.68,0,0,0,1.11.72l1.77.54c1,.31,3.34.23,2.05-1.27A30,30,0,0,0,252,78.3Z"/><path class="cls-6" d="M18.84,451s29.84,28.65,37.43,33.58,21.81,8.73,27.43,13.79,19.7,10.38,22.94,11.77,20.2,12.94,20.2,12.94l20.72,4.62L144.91,538s-21.78-12.21-29.53-14.85S104.36,513,95,512.92s-16.91-2.76-23.16-8.14S60.36,492,53.16,491.88s-17,.07-17,.07,50.08,46.07,61,57-3.73,16.9,15,15.72,29.61,8.39,19.89,13.21-56.6-25.82-56.6-25.82L38.45,496.36"/><polyline class="cls-6" points="158.1 547 144.91 537.99 146.79 530.7"/><path class="cls-2" d="M154.38,543.77S123,521,108,518s-26.32-2.18-31.63-6.59S64.07,507,62.07,509s5,8.8,8,13.4,4.19,12.3,16.6,16.45,15.12,15.62,22.27,15.89,6.15,8.26,9.15,13.26,11,7,14,14,5.55,11,6.77,6-4.14-13.64-3-17.31,1.88-17,10-13.33,1.41.47,1.41.47Z"/><path class="cls-1" d="M127.12,530.49c-.71,2.2-.31,4.16,2.45,6.18s3.25,7,.61,7.69c-4.64,1.27-7.66,4.52-11.89,6.5-1.12.52-2.15,1.5-3.55,0-1-1.09-.51-2.17.14-3,.87-1.17,1.85-2.49-.06-4-3.86-3.09-4.82-8.62-10.27-9.52-1.74-1.93-5.57-3.12-3-5.22,3.16-2.58,5.86-5.66,11.38-5.39,3.69.18,6.9,2.65,10.49,2.4C126.58,525.9,128.11,527.4,127.12,530.49Z"/><path class="cls-7" d="M291.07,474a5.85,5.85,0,0,1,2,1,6,6,0,0,1,2,3l-4.56,3.69-6.75-4.05Z"/></g></g></svg>